<svg width="135" height="39" viewBox="0 0 135 39" fill="none" xmlns="http://www.w3.org/2000/svg">
<g clip-path="url(#clip0_290_5473)">
<path d="M2.04074 7.0081L2.62389 6.35715L3.27485 7.0081H3.39012L4.08854 6.24187L3.32909 5.48242H3.21382L2.62389 6.1266L1.97971 5.48242H1.92547L1.16602 6.24187L1.92547 7.0081H2.04074Z" fill="white"/>
<path d="M1.57993 12.5483C1.97566 12.5459 2.36466 12.4457 2.71232 12.2567L2.88184 11.5786C3.05814 12.8602 3.55992 13.3891 4.57705 13.3891H24.7906C26.1113 13.3736 27.4235 13.1751 28.6896 12.7991L29.6254 12.5143L29.9102 11.3548L29.8356 11.2667L28.8998 11.4972C27.4352 11.843 25.9298 11.382 25.9298 10.5072C25.9298 9.82915 26.6893 9.4562 27.3945 9.4562C28.0471 9.44417 28.6847 9.65195 29.2049 10.0461L29.4355 9.76134C28.9608 8.77134 28.3845 8.24244 27.625 8.24244C26.5197 8.24244 25.5297 9.4562 25.5297 10.7513C25.5348 11.0204 25.598 11.2851 25.7151 11.5274C25.8321 11.7697 26.0002 11.9838 26.2078 12.155C25.758 12.2097 25.3046 12.2301 24.8517 12.216H4.78047C3.84472 12.216 3.61417 11.8702 3.4989 10.8056L3.1463 7.67285H2.85472L2.45465 8.66285L1.5189 9.30703C0.400068 10.0326 0 10.5479 0 11.2531C0.0160134 11.4429 0.0699491 11.6276 0.158614 11.7962C0.247279 11.9648 0.36887 12.1139 0.516189 12.2347C0.663508 12.3554 0.83356 12.4454 1.01628 12.4993C1.19899 12.5531 1.39066 12.5698 1.57993 12.5483ZM1.22055 10.1478L2.49534 9.46977L2.71232 11.1378C2.32621 11.2997 1.91031 11.3782 1.49178 11.3684C0.813697 11.3684 0.386506 11.1989 0.386506 10.8937C0.386506 10.5886 0.678081 10.3852 1.22055 10.1478Z" fill="white"/>
<path d="M33.429 13.3618H42.1288C42.5457 13.3427 42.9483 13.2038 43.2883 12.9617C43.3493 12.7312 43.4036 12.5616 43.4646 12.3175C43.5798 12.6613 43.8117 12.954 44.1201 13.1447C44.4285 13.3354 44.7939 13.4122 45.153 13.3618H47.6687C47.9119 13.3659 48.1529 13.3149 48.3736 13.2128C48.5944 13.1106 48.7892 12.9599 48.9435 12.7718C49.7786 13.3091 50.751 13.594 51.744 13.5923C52.8632 13.6054 53.9747 13.4052 55.0191 13.0024C55.5595 13.2809 56.1607 13.4207 56.7685 13.4092C57.4703 13.399 58.1556 13.1948 58.7485 12.8193C58.9589 12.2988 59.056 11.7394 59.0333 11.1784V6.75727L59.6233 6.31652V6.22837L59.0333 5.55028V4.64844H58.9181C58.1586 5.18412 57.9891 5.75371 58.3892 6.34364L58.5655 11.8836C58.1133 12.0456 57.6353 12.1237 57.155 12.1141C56.8092 12.1141 56.477 12.0599 56.1108 12.0599C56.266 11.672 56.3421 11.257 56.3346 10.8393C56.3474 10.3457 56.1654 9.86681 55.8278 9.5064C55.4902 9.14599 55.0243 8.93301 54.5309 8.91357H54.4698C53.2493 8.91357 52.0762 9.84932 50.5099 12.1277C50.2251 12.0688 49.9493 11.9731 49.6894 11.8429L50.2793 11.0224L49.9945 10.7919L49.5944 11.3818C49.4008 11.6754 49.128 11.9082 48.8076 12.0534C48.4873 12.1985 48.1324 12.2502 47.784 12.2023H45.4988C44.5088 12.2023 44.1427 11.9717 44.1427 11.2665V10.2223H43.7426L43.4578 11.9107C43.0395 12.1262 42.5715 12.2268 42.1016 12.2023H33.6867C32.6967 12.2023 32.3305 11.9107 32.3305 11.1512V4.662H32.005L31.4219 5.76727L31.5914 11.1377C31.5643 12.7718 32.0796 13.3618 33.429 13.3618ZM53.9681 10.1477C54.3916 10.1711 54.7976 10.3242 55.1312 10.5862C55.4647 10.8482 55.7097 11.2064 55.8328 11.6123C54.5786 12.1335 53.2308 12.392 51.8728 12.3718C51.5601 12.3635 51.249 12.3249 50.9438 12.2565C52.1576 10.7919 52.9645 10.1477 53.9681 10.1477Z" fill="white"/>
<path d="M43.9939 9.27227L44.7398 8.51282L43.9939 7.80762H43.865L43.1191 8.51282L43.865 9.27227H43.9939Z" fill="white"/>
<path d="M61.8342 13.3609L62.1936 12.0115V4.66113H61.7799L61.2578 5.7664L61.4341 13.3609H61.8342Z" fill="white"/>
<path d="M66.9748 8.0521L67.619 7.40793L68.1953 8.0521H68.3106L69.07 7.29265L68.3106 6.5332H68.1953L67.619 7.11635L66.9748 6.5332H66.8595L66.1543 7.29265L66.9205 8.0521H66.9748Z" fill="white"/>
<path d="M67.5645 13.5376C68.724 13.5376 69.4292 12.6561 69.4292 11.3813C69.4292 10.2218 68.9003 9.51655 66.805 8.66895L66.744 8.72319V9.88949C66.2118 10.4664 65.8852 11.203 65.815 11.9848C65.7993 12.1887 65.825 12.3936 65.8905 12.5874C65.956 12.7811 66.0599 12.9596 66.196 13.1122C66.3322 13.2648 66.4977 13.3884 66.6828 13.4754C66.8678 13.5625 67.0685 13.6113 67.2729 13.6189C67.3597 13.5632 67.4613 13.5349 67.5645 13.5376ZM67.2051 10.2082C68.4799 10.7913 68.9545 11.2524 68.9545 11.6661C68.9545 12.0797 68.4799 12.3441 67.5984 12.3441C66.7169 12.3441 66.2422 12.0594 66.2422 11.5847C66.2991 11.3012 66.4139 11.0326 66.5796 10.7957C66.7454 10.5588 66.9583 10.3588 67.2051 10.2082Z" fill="white"/>
<path d="M69.3672 15.0428V15.3886L71.5777 16.0667C72.5783 14.8733 73.1596 13.3844 73.2322 11.8287C73.1764 10.9172 72.8944 10.034 72.4118 9.25879H72.0659L71.6659 10.2488C72.4864 11.293 72.7712 11.7677 72.7712 12.3983C72.744 13.6528 71.5235 14.5275 69.3672 15.0428Z" fill="white"/>
<path d="M75.2531 13.3609L75.5989 12.0115V4.66113H75.2531L74.6699 5.7664L74.914 13.3609H75.2531Z" fill="white"/>
<path d="M79.4041 11.8971C79.3494 10.9854 79.0673 10.1019 78.5836 9.32715H78.231L77.8242 10.3171C78.6447 11.3682 78.9295 11.8428 78.9295 12.4734C78.9295 13.5177 77.7089 14.4534 75.5391 14.9823V15.3282L77.7496 16.0062C78.7398 14.8568 79.3215 13.4119 79.4041 11.8971Z" fill="white"/>
<path d="M78.2849 8.45163L78.9901 7.69218L78.2306 6.94629H78.1696L77.4102 7.69218L78.1696 8.45163H78.2849Z" fill="white"/>
<path d="M84.0829 11.7815C84.0829 10.2083 83.3235 8.92676 82.3335 8.92676C81.4588 8.92676 80.584 10.1473 80.584 11.3814C80.5529 11.7581 80.668 12.1323 80.9053 12.4264C81.1427 12.7206 81.4841 12.9121 81.8588 12.9613H82.1436C82.5246 12.9674 82.9021 12.8886 83.2489 12.7308L83.5947 11.8561C83.6462 12.0482 83.6668 12.2474 83.6557 12.446C83.6557 13.8022 82.2453 14.7243 79.75 15.1583V15.4974L81.9741 16.1754C83.2207 15.04 83.9769 13.4643 84.0829 11.7815ZM82.2589 11.7408C81.4994 11.7408 81.0384 11.5645 81.0384 11.1509C81.0346 11.0175 81.0582 10.8847 81.1077 10.7608C81.1572 10.6369 81.2316 10.5244 81.3263 10.4304C81.421 10.3363 81.5339 10.2627 81.6582 10.214C81.7824 10.1653 81.9153 10.1426 82.0487 10.1473C82.6318 10.1473 83.2625 10.7915 83.5066 11.5509C83.1014 11.6713 82.6815 11.7352 82.2589 11.7408Z" fill="white"/>
<path d="M3.21382 18.7861L2.62389 19.4167L1.97971 18.7861H1.92547L1.16602 19.532L1.92547 20.2983H2.04074L2.62389 19.6609L3.27485 20.2983H3.39012L4.08854 19.532L3.32909 18.7861H3.21382Z" fill="white"/>
<path d="M17.0947 27.6426H16.9794L16.3895 28.2935L15.7453 27.6426H15.6911L14.9316 28.4088L15.6911 29.1683H15.8064L16.3895 28.5173L17.0405 29.1683H17.1557L17.8542 28.4088L17.0947 27.6426Z" fill="white"/>
<path d="M22.6954 26.5975H25.0347C25.7836 26.5986 26.5214 26.4171 27.1843 26.0686C27.3922 25.5471 27.4914 24.9887 27.4758 24.4276C27.4627 23.7811 27.2574 23.1532 26.8859 22.6239H26.5401L26.14 23.6139C26.5517 24.0196 26.8528 24.5238 27.0147 25.0786C26.379 25.3039 25.7093 25.4186 25.0347 25.4176H18.1454C17.1554 25.4176 16.7893 25.1871 16.7893 24.4886V23.4376H16.4435L16.1587 25.1328C15.7395 25.3454 15.2717 25.4436 14.8025 25.4176H4.78047C3.84472 25.4176 3.61417 25.0786 3.4989 24.014L3.15986 20.9287H2.86828L2.46821 21.9119L1.53246 22.59C0.400068 23.3359 0 23.797 0 24.5564C0 25.3159 0.678081 25.838 1.57993 25.838C1.97566 25.8357 2.36466 25.7355 2.71232 25.5464C2.76657 25.3159 2.8276 25.0786 2.88184 24.8684C3.05815 26.1432 3.55993 26.6721 4.57705 26.6721H14.8161C15.2345 26.6612 15.6395 26.5215 15.9756 26.272C16.0298 26.0414 16.0909 25.8719 16.1451 25.6278C16.2653 25.9689 16.4997 26.2579 16.8087 26.4458C17.1177 26.6336 17.4822 26.7088 17.8403 26.6585L22.6954 26.6042V26.5975ZM1.57993 24.6243C0.901848 24.6243 0.474657 24.448 0.474657 24.1496C0.474657 23.8512 0.705204 23.6207 1.23411 23.3901L2.5089 22.7121L2.71232 24.3734C2.36006 24.5455 1.97194 24.6315 1.57993 24.6243Z" fill="white"/>
<path d="M25.7812 20.9977L26.5407 21.7572H26.656L27.4154 20.9977L26.656 20.2383H26.5407L25.7812 20.9977Z" fill="white"/>
<path d="M51.5742 17.9111H51.2284C50.469 18.4468 50.2927 19.0164 50.6995 19.6063L50.8555 25.1463C50.4026 25.3057 49.9251 25.3838 49.4451 25.3768C49.1891 25.4078 48.9302 25.35 48.7117 25.213C48.4932 25.076 48.3284 24.8681 48.2449 24.6241L48.0143 24.0884C47.5397 23.2137 47.2549 22.9289 46.7327 22.9289C45.9733 22.9289 45.2138 23.8647 44.9833 25.0242C44.6397 25.1976 44.2627 25.2948 43.878 25.309C43.2126 25.3543 42.5551 25.1432 42.0404 24.7191C42.6304 24.1834 42.9152 23.8376 42.9152 23.4375C42.9152 22.7594 42.3863 22.3932 41.5115 22.3932C40.9837 22.3947 40.4651 22.5326 40.0062 22.7933L39.6739 23.9461L39.7892 24.2376C40.0179 24.2206 40.247 24.2665 40.4514 24.3705C40.6558 24.4745 40.8279 24.6326 40.9487 24.8276L41.0097 24.8818C40.405 25.2225 39.7238 25.4045 39.0298 25.4107H34.3646C33.4831 25.4107 33.0084 25.0106 32.6083 23.6613L31.7336 21.2337H31.4488L31.0487 22.2237L31.8624 24.258C31.9757 24.5594 32.1117 24.8519 32.2693 25.1327C31.7746 25.4348 31.2079 25.5987 30.6283 25.6074C29.5841 25.6074 29.2722 25.4311 29.2247 24.6716V24.4885H28.8789C28.7612 24.8051 28.7037 25.1408 28.7094 25.4785C28.7094 26.3532 29.2383 26.7533 30.3435 26.7533C30.9966 26.7686 31.6353 26.5604 32.154 26.1634C32.2083 25.9396 32.2693 25.6955 32.3235 25.4853H32.3846C32.5105 25.8312 32.7404 26.1296 33.0427 26.3396C33.345 26.5497 33.7049 26.661 34.073 26.6584H38.9145C39.8379 26.5354 40.6967 26.1167 41.3624 25.465C41.6116 25.8405 41.9519 26.1469 42.3514 26.3555C42.751 26.5642 43.1968 26.6684 43.6475 26.6584C44.1673 26.665 44.6706 26.4762 45.0579 26.1295C45.8829 26.5406 46.7691 26.8154 47.6821 26.9432C47.8054 26.6616 47.9008 26.3686 47.9669 26.0684C48.1205 26.259 48.3161 26.4113 48.5385 26.5137C48.7608 26.616 49.0038 26.6655 49.2484 26.6584C49.9543 26.6767 50.6477 26.4701 51.2284 26.0684C51.4511 25.5415 51.5552 24.972 51.5336 24.4004V19.9657L52.1235 19.4911L51.5336 18.813L51.5742 17.9111ZM45.4308 25.092C45.4672 24.864 45.5781 24.6545 45.7462 24.4963C45.9143 24.338 46.1301 24.2399 46.3598 24.2173C46.7056 24.2173 46.9497 24.3868 47.2956 24.9767L47.5804 25.5056C47.6414 25.6209 47.6956 25.6752 47.7567 25.7904C46.9663 25.6111 46.1892 25.3777 45.4308 25.092Z" fill="white"/>
<path d="M54.1446 26.5973L54.4837 25.3158V17.9111H54.1446L53.5547 19.0774L53.7852 26.5973H54.1446Z" fill="white"/>
<path d="M59.8551 26.8286C61.0282 26.8286 61.7063 25.981 61.7063 24.6723C61.7063 23.5128 61.1774 22.8076 59.0821 21.96L59.0211 22.0142V23.1805C58.4776 23.7499 58.1491 24.4907 58.0921 25.2758C58.0699 25.6866 58.2117 26.0895 58.4863 26.3959C58.7609 26.7023 59.1459 26.8872 59.5568 26.91C59.6461 26.8541 59.7498 26.8258 59.8551 26.8286ZM59.5093 23.4382C60.7909 24.0281 61.2655 24.4892 61.2655 24.9028C61.2655 25.3165 60.7298 25.5809 59.9094 25.5809C59.0889 25.5809 58.5532 25.2961 58.5532 24.8215C58.6925 24.2628 59.0329 23.7751 59.5093 23.4517V23.4382Z" fill="white"/>
<path d="M59.2106 19.7764L58.4512 20.5426L59.2106 21.2885H59.3259L59.9158 20.6511L60.56 21.2885H60.6753L61.3737 20.5426L60.6143 19.7764H60.56L59.9158 20.4138L59.2649 19.7764H59.2106Z" fill="white"/>
<path d="M64.6343 22.2178C63.7595 22.2178 62.8848 23.4383 62.8848 24.6724C62.8598 25.042 62.9784 25.4069 63.2159 25.6912C63.4534 25.9754 63.7915 26.157 64.1596 26.1981H64.4173C64.8063 26.2125 65.1935 26.1383 65.5497 25.9811L65.8955 25.1064C65.9466 25.2963 65.9672 25.4932 65.9565 25.6895C65.9565 27.0457 64.5461 27.9747 62.0508 28.4019V28.6934L64.2613 29.3715C64.8909 28.8193 65.4049 28.1479 65.7738 27.3961C66.1428 26.6443 66.3593 25.827 66.4108 24.9911C66.3837 23.5129 65.6243 22.2178 64.6343 22.2178ZM64.5732 24.9301C63.8138 24.9301 63.3595 24.7538 63.3595 24.3402C63.3567 24.2094 63.3804 24.0794 63.4292 23.9581C63.478 23.8367 63.5508 23.7264 63.6433 23.634C63.7357 23.5415 63.846 23.4686 63.9674 23.4199C64.0887 23.3711 64.2187 23.3474 64.3495 23.3502C64.9326 23.3502 65.57 23.9943 65.8141 24.7538C65.4275 24.9359 64.9983 25.0086 64.5732 24.964V24.9301Z" fill="white"/>
<path d="M72.2287 19.8919L72.9135 19.1935L72.1677 18.4883H72.1134L71.4082 19.1935L72.1134 19.8919H72.2287Z" fill="white"/>
<path d="M72.7984 19.8379L72.1678 20.4143L71.5236 19.8379H71.4626L70.7031 20.5973L71.4626 21.3432H71.5778L72.1678 20.7126L72.7984 21.3432H72.9137L73.6189 20.5973L72.8594 19.8379H72.7984Z" fill="white"/>
<path d="M73.8504 26.5981C74.5557 26.6122 75.2479 26.406 75.8304 26.0082C76.0413 25.4901 76.1384 24.9328 76.1152 24.374V19.9394L76.7052 19.4647L76.1152 18.7866V17.8848H75.8304C75.071 18.4137 74.8947 18.99 75.3015 19.58L75.4711 25.1199C75.0203 25.2786 74.5452 25.3566 74.0674 25.3504C73.1927 25.3504 72.8469 25.0046 72.657 23.94L72.3722 22.1363H72.0874L71.9111 22.5364C71.5653 23.5264 71.1517 23.7569 70.6906 23.7569C70.4258 23.7171 70.1734 23.6177 69.9526 23.4661C69.7318 23.3146 69.5482 23.115 69.4158 22.8822H69.07L68.6699 23.9468C69.4293 24.6249 69.7752 25.2284 69.7752 25.7573C69.7752 26.8015 68.5546 27.683 66.3848 28.2119V28.5578L68.5953 29.3172C69.5926 28.1124 70.1688 26.6147 70.2363 25.0521V24.9368C70.3448 24.9368 70.46 24.9978 70.5753 24.9978C71.2534 24.9978 71.6806 24.591 71.9315 23.6417L72.0467 24.4011C72.3654 26.137 72.7655 26.6524 73.8708 26.5981H73.8504Z" fill="white"/>
<path d="M79.1057 25.3158V17.9111H78.7599L78.1699 19.0774L78.4005 26.5973H78.7599L79.1057 25.3158Z" fill="white"/>
<path d="M79.8652 28.347V28.6928L82.0487 29.3709C82.6782 28.8186 83.1923 28.1473 83.5612 27.3955C83.9301 26.6437 84.1466 25.8263 84.1982 24.9905C84.1982 23.4105 83.4387 22.1357 82.4487 22.1357C81.574 22.1357 80.6993 23.3563 80.6993 24.5904C80.6727 24.9596 80.7909 25.3247 81.0288 25.6082C81.2668 25.8917 81.6058 26.0715 81.9741 26.1093H82.2046C82.5858 26.1179 82.9639 26.039 83.3099 25.8787L83.6557 25.004C83.7012 25.1972 83.7194 25.3957 83.71 25.594C83.771 26.9569 82.3199 27.8859 79.8652 28.347ZM82.3741 24.9566C81.6147 24.9566 81.1536 24.7803 81.1536 24.3666C81.1518 24.2361 81.1761 24.1066 81.2252 23.9856C81.2743 23.8647 81.3472 23.7548 81.4395 23.6625C81.5318 23.5702 81.6416 23.4974 81.7626 23.4483C81.8835 23.3992 82.0131 23.3748 82.1436 23.3766C82.7335 23.3766 83.3641 24.0208 83.6082 24.7803C83.2213 24.9529 82.7945 25.0162 82.3741 24.9633V24.9566Z" fill="white"/>
<path d="M3.3904 32.3213L3.72945 32.2534V32.0771H2.73945V32.2534L1.92575 34.1928L0.989998 32.0771H0.0610273V32.2534L0.400068 32.3213V34.7623L0 34.8776V35.0675H1.1663V34.8776L0.644177 34.7081V32.4976L1.63418 34.6471L1.74945 34.8776H1.92575L1.98 34.6471L2.91575 32.4365V34.7623L2.5089 34.8776V35.0675H3.79047V34.8776L3.3904 34.7623V32.3213Z" fill="white"/>
<path d="M4.78094 32.8438L4.08929 33.0133V33.1896L4.31984 33.2574V34.7627L4.02148 34.878V35.0679H5.07929V34.878L4.78094 34.7627V32.8438Z" fill="white"/>
<path d="M4.83521 32.0221C4.83521 31.9466 4.80521 31.8741 4.7518 31.8207C4.69839 31.7673 4.62595 31.7373 4.55042 31.7373C4.47489 31.7373 4.40245 31.7673 4.34904 31.8207C4.29563 31.8741 4.26563 31.9466 4.26562 32.0221C4.29189 32.0905 4.33844 32.1493 4.39904 32.1905C4.45964 32.2317 4.53139 32.2534 4.60467 32.2526C4.69616 32.192 4.77456 32.1136 4.83521 32.0221Z" fill="white"/>
<path d="M7.40545 33.6032C7.40545 33.0133 7.23593 32.8438 6.76127 32.8438C6.49358 32.8887 6.25202 33.0313 6.08319 33.2438L5.96792 32.8438L5.38477 33.0743V33.1896L5.66956 33.2438V34.7966L5.38477 34.9119V35.0882H6.40189V34.9119L6.10353 34.7966V33.4405C6.17182 33.3691 6.25396 33.3125 6.3449 33.274C6.43585 33.2355 6.53369 33.216 6.63243 33.2167C6.91723 33.2167 7.0325 33.3862 7.0325 33.6846V34.7966L6.80195 34.8577V35.0272H7.79873V34.7966L7.50716 34.6814L7.40545 33.6032Z" fill="white"/>
<path d="M8.63983 32.8438L7.94141 33.0133V33.1896L8.2262 33.2574V34.7627L7.94141 34.878V35.0679H8.98565V34.878L8.63983 34.7627V32.8438Z" fill="white"/>
<path d="M8.69942 32.0236C8.67193 31.9546 8.62415 31.8956 8.56239 31.8545C8.50063 31.8133 8.42781 31.7919 8.35359 31.793C8.23832 31.793 8.18407 31.9083 8.12305 32.0236C8.15053 32.0925 8.19832 32.1515 8.26008 32.1927C8.32184 32.2338 8.39465 32.2553 8.46887 32.2541C8.57058 32.1931 8.69942 32.0846 8.69942 32.0236Z" fill="white"/>
<path d="M10.2654 33.8328L10.0349 33.7175C9.74331 33.6022 9.68906 33.487 9.68906 33.3175C9.68611 33.279 9.6914 33.2403 9.70458 33.2041C9.71775 33.1678 9.73851 33.1348 9.76547 33.1072C9.79242 33.0796 9.82495 33.0581 9.86088 33.0441C9.89682 33.03 9.93533 33.0238 9.97385 33.0259C10.0813 33.0302 10.1841 33.0708 10.2654 33.1412L10.4349 33.5412H10.5502V32.9581C10.3687 32.8638 10.1639 32.8238 9.96029 32.8428C9.86466 32.8312 9.76766 32.8402 9.67575 32.869C9.58385 32.8979 9.49915 32.946 9.42729 33.0102C9.35544 33.0743 9.29807 33.1531 9.25903 33.2411C9.21998 33.3292 9.20014 33.4245 9.20084 33.5209C9.20084 33.8124 9.31612 33.9955 9.6755 34.1108L9.84502 34.2261C10.1298 34.3414 10.2451 34.5109 10.2451 34.7007C10.2434 34.7908 10.2074 34.8768 10.1443 34.9411C10.0813 35.0054 9.99603 35.0431 9.90604 35.0466C9.78201 35.0426 9.66182 35.0026 9.56022 34.9313L9.32968 34.4024H9.16016L9.2144 35.0466C9.40777 35.1652 9.63185 35.2242 9.85858 35.2161C9.96059 35.2294 10.0642 35.2223 10.1635 35.1954C10.2628 35.1685 10.3558 35.1222 10.4371 35.0591C10.5184 34.9961 10.5864 34.9176 10.6373 34.8282C10.6881 34.7387 10.7207 34.6401 10.7333 34.538C10.7943 34.1922 10.6791 34.0023 10.2654 33.8328Z" fill="white"/>
<path d="M12.0702 34.7951C11.9007 34.7951 11.7854 34.7951 11.7854 34.4561V33.2355H12.3753V32.9914H11.7854V32.415H11.6091L11.3853 33.005L11.0938 33.0592V33.2355H11.3853V34.7002C11.3853 34.985 11.5006 35.2291 11.8532 35.2291C11.9759 35.2374 12.099 35.2213 12.2154 35.1818C12.3318 35.1422 12.4391 35.0799 12.5313 34.9985L12.4703 34.8833C12.3513 34.8081 12.2097 34.7769 12.0702 34.7951Z" fill="white"/>
<path d="M13.9351 32.8438C13.7656 32.8438 13.6503 32.959 13.4672 33.1896L13.2909 33.4405L13.2367 32.9116L12.5586 33.1421V33.2574L12.8502 33.3116V34.7966L12.5586 34.9119V35.0814H13.6639V34.9119L13.2638 34.8509V33.6303C13.3373 33.5183 13.4406 33.4291 13.5622 33.3727L13.908 33.4879C13.968 33.4539 14.0167 33.4029 14.048 33.3415C14.0793 33.28 14.0919 33.2107 14.0843 33.1421C14.0843 33.0268 14.0232 32.9116 13.908 32.9116C13.9961 32.8438 13.9351 32.8438 13.9351 32.8438Z" fill="white"/>
<path d="M15.6911 33.0733L15.9759 33.1886L15.386 34.7075L14.8571 33.1886L15.1419 33.1275V32.958H14.0977V33.1275L14.3282 33.1886L15.1419 35.2838L14.9114 35.867C14.8966 35.8175 14.8661 35.7742 14.8245 35.7436C14.7829 35.713 14.7324 35.6968 14.6808 35.6975C14.6219 35.7023 14.5668 35.7283 14.5256 35.7707C14.4845 35.8131 14.4601 35.869 14.457 35.928C14.4551 35.9659 14.4611 36.0038 14.4747 36.0393C14.4884 36.0747 14.5093 36.1069 14.5361 36.1337C14.563 36.1606 14.5951 36.1815 14.6306 36.1951C14.666 36.2087 14.7039 36.2147 14.7418 36.2128C14.9724 36.2128 15.0877 36.0433 15.2707 35.6229L16.2743 33.1682L16.5048 33.114V32.958H15.7318V33.0733H15.6911Z" fill="white"/>
<path d="M18.5463 32.8438C18.3999 32.847 18.2557 32.8801 18.1225 32.9409C17.9893 33.0017 17.8699 33.0891 17.7715 33.1976C17.6732 33.3061 17.598 33.4335 17.5505 33.572C17.503 33.7105 17.4842 33.8573 17.4953 34.0033C17.4746 34.2735 17.5612 34.5411 17.7363 34.7479C17.9115 34.9548 18.1611 35.0844 18.431 35.1085H18.5463C18.6928 35.1063 18.8372 35.0739 18.9705 35.0133C19.1039 34.9528 19.2233 34.8653 19.3213 34.7565C19.4193 34.6477 19.4938 34.5198 19.5401 34.3808C19.5865 34.2419 19.6036 34.0949 19.5906 33.949C19.6175 33.6871 19.5411 33.4251 19.3778 33.2187C19.2144 33.0122 18.9769 32.8777 18.7158 32.8438H18.5463ZM18.6141 34.878C18.1462 34.878 17.9699 34.3491 17.9699 33.888C17.9699 33.4269 18.1462 33.0743 18.5056 33.0743C18.865 33.0743 19.1498 33.4133 19.1498 34.0643C19.1362 34.5322 18.9871 34.878 18.6141 34.878Z" fill="white"/>
<path d="M21.1693 31.6768C20.8896 31.7151 20.6339 31.8553 20.4512 32.0705C20.2685 32.2858 20.1717 32.5608 20.1793 32.8431L19.8945 32.9583V33.1279H20.1793V34.7959L19.8945 34.9112V35.0875H21.0201V34.9112L20.5997 34.7959V33.1279H21.1829V32.8973H20.5997V32.5515C20.5997 32.0836 20.7693 31.9073 21.0676 31.9073C21.0997 31.9032 21.1323 31.9066 21.1629 31.9172C21.1935 31.9278 21.2212 31.9453 21.2439 31.9683L21.3592 32.3684H21.4745C21.5055 32.3716 21.5369 32.3678 21.5663 32.3573C21.5957 32.3469 21.6225 32.33 21.6445 32.3079C21.6666 32.2858 21.6835 32.2591 21.694 32.2297C21.7044 32.2003 21.7082 32.1689 21.705 32.1379V32.0836C21.7593 31.9073 21.5287 31.6768 21.1693 31.6768Z" fill="white"/>
<path d="M23.279 32.3213L23.6248 32.2534V32.0771H22.4043V32.2534L22.8111 32.3213V34.7623L22.4043 34.8776V35.0675H23.6859V34.8776L23.279 34.7623V32.3213Z" fill="white"/>
<path d="M26.0243 33.6032C26.0243 33.0133 25.848 32.8438 25.3462 32.8438C25.0773 32.8856 24.8347 33.0287 24.6681 33.2438L24.5528 32.8438L23.9629 33.0743V33.1896L24.2477 33.2438V34.7966L23.9629 34.9119V35.0882H24.9529V34.9119L24.6749 34.7966V33.4405C24.7432 33.3691 24.8253 33.3125 24.9162 33.274C25.0072 33.2355 25.105 33.216 25.2038 33.2167C25.4886 33.2167 25.6038 33.3862 25.6038 33.6846V34.7966L25.3801 34.8577V35.0272H26.3701V34.7966L26.0785 34.6814L26.0243 33.6032Z" fill="white"/>
<path d="M28.5195 31.7373L27.6448 31.8526V32.0221L28.0448 32.0831V32.9578C27.9369 32.9075 27.8176 32.8864 27.699 32.8968C27.5452 32.901 27.3938 32.9363 27.254 33.0006C27.1142 33.0649 26.9889 33.1569 26.8856 33.2709C26.7823 33.385 26.7032 33.5188 26.653 33.6643C26.6028 33.8097 26.5827 33.9639 26.5937 34.1174C26.5776 34.2371 26.5865 34.3588 26.6198 34.475C26.6531 34.5911 26.7101 34.699 26.7872 34.792C26.8642 34.8851 26.9598 34.9611 27.0677 35.0154C27.1756 35.0696 27.2936 35.101 27.4142 35.1074H27.4752C27.7178 35.0952 27.9472 34.9938 28.1194 34.8226L28.2347 35.1074L28.9128 34.9921V34.7954L28.5669 34.6802L28.5195 31.7373ZM28.0584 34.7073C27.9545 34.7687 27.8391 34.8079 27.7193 34.8226C27.1837 34.8226 27.0413 34.3479 27.0413 33.8868C27.0413 33.4257 27.3261 33.1274 27.6312 33.1274C27.7256 33.1366 27.8167 33.167 27.8977 33.2163C27.9787 33.2656 28.0475 33.3326 28.0991 33.4122V34.7073H28.0584Z" fill="white"/>
<path d="M31.1456 32.8973L30.3319 32.9583V33.1278L30.6777 33.1889V34.5925C30.5472 34.7079 30.3772 34.7686 30.2031 34.762C29.9115 34.762 29.7284 34.5925 29.7284 34.2331V32.877L28.9961 32.938V33.1075L29.2809 33.1685V34.267C29.2809 34.8027 29.5114 35.0333 29.8708 35.0333C30.1575 35.0137 30.4273 34.8908 30.6303 34.6874L30.7455 35.0333L31.4236 34.9722V34.7959H31.1049L31.1456 32.8973Z" fill="white"/>
<path d="M32.7854 33.8333L32.6091 33.7181C32.3243 33.6028 32.2701 33.4875 32.2701 33.318C32.2672 33.2795 32.2724 33.2409 32.2856 33.2046C32.2988 33.1684 32.3195 33.1353 32.3465 33.1078C32.3735 33.0802 32.406 33.0586 32.4419 33.0446C32.4779 33.0306 32.5164 33.0244 32.5549 33.0264C32.6606 33.0294 32.7617 33.0704 32.8397 33.1417L33.016 33.5418H33.1313V32.9586C32.9496 32.8647 32.7449 32.8247 32.5413 32.8433C32.3437 32.8297 32.1485 32.8925 31.9958 33.0187C31.8431 33.1448 31.7447 33.3248 31.7209 33.5214C31.7209 33.813 31.8361 33.9961 32.1955 34.1113L32.365 34.2266C32.6566 34.3419 32.7719 34.5114 32.7719 34.7013C32.7685 34.7919 32.731 34.8779 32.6669 34.9421C32.6027 35.0062 32.5167 35.0437 32.4261 35.0471H32.365C32.243 35.0434 32.1249 35.0033 32.026 34.9318L31.7954 34.4029H31.6191L31.6802 35.0471C31.8832 35.1724 32.1201 35.2317 32.3582 35.2166C32.4603 35.2299 32.5639 35.2229 32.6632 35.196C32.7625 35.169 32.8555 35.1227 32.9368 35.0597C33.0181 34.9966 33.0861 34.9181 33.1369 34.8287C33.1878 34.7393 33.2204 34.6406 33.233 34.5385C33.3143 34.1927 33.1448 34.0029 32.7854 33.8333Z" fill="white"/>
<path d="M34.535 34.7951C34.3655 34.7951 34.2502 34.7951 34.2502 34.4561V33.2355H34.8334V32.9914H34.2502V32.415H34.0739L33.8434 32.9439L33.5586 33.0592V33.2355H33.8434V34.7002C33.8434 34.985 33.9587 35.2291 34.318 35.2291C34.4407 35.2374 34.5638 35.2213 34.6802 35.1818C34.7966 35.1422 34.904 35.0799 34.9961 34.9985V34.7951C34.8437 34.7677 34.6875 34.7677 34.535 34.7951Z" fill="white"/>
<path d="M36.3989 32.8438C36.2294 32.8438 36.1141 32.959 35.9243 33.1896L35.7547 33.4133L35.6937 32.8844L35.0156 33.115V33.2303L35.3072 33.2845V34.7966L35.0156 34.9119V35.0814H36.1209V34.9119L35.7208 34.8509V33.6303C35.7847 33.5087 35.884 33.4094 36.0056 33.3455L36.3514 33.4608C36.4108 33.4265 36.4586 33.3753 36.4888 33.3137C36.519 33.2521 36.5302 33.1829 36.521 33.115C36.521 32.9997 36.4667 32.8844 36.3514 32.8844C36.4599 32.8438 36.3989 32.8438 36.3989 32.8438Z" fill="white"/>
<path d="M38.1496 33.0733L38.4412 33.1886L37.8513 34.7075L37.2953 33.1886L37.6343 33.1275V32.958H36.6172V33.1275L36.7867 33.1886L37.6072 35.2838L37.3766 35.867C37.3619 35.8175 37.3314 35.7742 37.2898 35.7436C37.2482 35.713 37.1977 35.6968 37.1461 35.6975C37.0865 35.7021 37.0305 35.7279 36.9883 35.7702C36.946 35.8124 36.9202 35.8684 36.9155 35.928C36.9135 35.9665 36.9197 36.005 36.9337 36.041C36.9478 36.0769 36.9693 36.1094 36.9969 36.1364C37.0245 36.1633 37.0575 36.1841 37.0938 36.1973C37.13 36.2105 37.1687 36.2157 37.2071 36.2128C37.4377 36.2128 37.5529 36.0433 37.736 35.6229L38.726 33.1682L38.9023 33.114V32.9987H38.1361L38.1496 33.0733Z" fill="white"/>
<path d="M41.6544 34.7086V33.5423C41.6544 33.0745 41.4849 32.8643 40.9763 32.8643C40.4678 32.8643 40.1016 33.2101 40.1016 33.4474C40.1016 33.5627 40.1626 33.6237 40.3321 33.6237H40.5017V33.1491C40.5706 33.1064 40.6515 33.0874 40.7322 33.0948C40.9628 33.0948 41.1391 33.2643 41.1391 33.6237V33.8543L40.6644 33.9695C40.1898 34.0848 39.9863 34.2543 39.9863 34.6476C39.9863 34.7879 40.0421 34.9224 40.1412 35.0216C40.2404 35.1208 40.375 35.1765 40.5152 35.1765C40.8068 35.1765 40.9221 35.0612 41.1933 34.8307C41.1904 34.8763 41.1971 34.922 41.2131 34.9648C41.229 35.0076 41.2537 35.0466 41.2857 35.0792C41.3177 35.1118 41.3562 35.1373 41.3987 35.1541C41.4412 35.1709 41.4867 35.1785 41.5324 35.1765C41.6962 35.1671 41.8571 35.1281 42.007 35.0612V34.946H41.7765C41.6544 34.7968 41.6544 34.7968 41.6544 34.7086ZM41.1797 34.5934C41.1255 34.7086 40.9492 34.7629 40.8339 34.8239C40.7497 34.8296 40.6666 34.8024 40.6021 34.748C40.5376 34.6936 40.4967 34.6163 40.4881 34.5323V34.4781C40.4881 34.3108 40.6034 34.1956 40.8339 34.1323L41.2408 34.017V34.6069H41.1797V34.5934Z" fill="white"/>
<path d="M44.2792 33.6032C44.2792 33.0133 44.1097 32.8438 43.6011 32.8438C43.3334 32.8887 43.0919 33.0313 42.923 33.2438L42.8078 32.8438L42.2246 33.0743V33.1896L42.5094 33.2438V34.7966L42.2246 34.9119V35.0882H43.1536V34.9119L42.8756 34.7966V33.4405C42.9439 33.3691 43.026 33.3125 43.1169 33.274C43.2079 33.2355 43.3057 33.216 43.4045 33.2167C43.696 33.2167 43.8045 33.3862 43.8045 33.6846V34.7966L43.5808 34.8577V35.0272H44.5708V34.7966L44.2792 34.6814V33.6032Z" fill="white"/>
<path d="M46.7871 31.7373L45.9124 31.8526V32.0221L46.3124 32.0831V32.9578C46.2045 32.9075 46.0852 32.8864 45.9666 32.8968C45.8134 32.9019 45.6627 32.9379 45.5237 33.0026C45.3847 33.0672 45.2602 33.1593 45.1576 33.2733C45.055 33.3873 44.9765 33.5208 44.9268 33.6658C44.877 33.8108 44.8571 33.9644 44.8681 34.1174C44.851 34.2372 44.8591 34.3594 44.892 34.4759C44.9249 34.5925 44.9818 34.7009 45.0591 34.7941C45.1363 34.8874 45.2323 34.9634 45.3407 35.0174C45.4491 35.0713 45.5676 35.102 45.6886 35.1074H45.7428C45.8691 35.107 45.994 35.0817 46.1104 35.0328C46.2267 34.9839 46.3323 34.9125 46.4209 34.8226L46.5362 35.1074L47.2143 34.9921V34.7954L46.7871 34.7073V31.7373ZM46.3124 34.7073C46.2066 34.7698 46.0887 34.8091 45.9666 34.8226C45.4377 34.8226 45.2885 34.3479 45.2885 33.8868C45.2771 33.7982 45.2834 33.7082 45.3069 33.6219C45.3304 33.5357 45.3708 33.455 45.4256 33.3844C45.4804 33.3139 45.5486 33.2548 45.6264 33.2107C45.7041 33.1666 45.7898 33.1383 45.8785 33.1274C45.974 33.1356 46.0665 33.1656 46.1487 33.2149C46.231 33.2643 46.3009 33.3317 46.3531 33.4122L46.3124 34.7073Z" fill="white"/>
<path d="M51.6892 32.3213L52.0283 32.2534V32.0771H51.0383V32.2534L50.2246 34.1928L49.2888 32.0771H48.2988V32.2534L48.7125 32.3213V34.7623L48.2988 34.8776V35.0675H49.4787V34.8776L48.943 34.7081V32.4976L49.933 34.6471L49.994 34.8776H50.1636L50.2788 34.6471L51.2281 32.4365V34.7623L50.8145 34.8776V35.0675H52.0283V34.8776L51.6892 34.7623V32.3213Z" fill="white"/>
<path d="M52.5043 32.0227C52.5022 32.0612 52.5084 32.0998 52.5225 32.1357C52.5365 32.1716 52.558 32.2042 52.5856 32.2311C52.6132 32.2581 52.6462 32.2788 52.6825 32.292C52.7188 32.3052 52.7574 32.3105 52.7959 32.3075C52.8714 32.3075 52.9438 32.2775 52.9972 32.2241C53.0506 32.1707 53.0807 32.0983 53.0807 32.0227C53.0807 31.9472 53.0506 31.8748 52.9972 31.8213C52.9438 31.7679 52.8714 31.7379 52.7959 31.7379C52.6196 31.6769 52.5043 31.8532 52.5043 32.0227Z" fill="white"/>
<path d="M53.0392 32.8438L52.3882 33.0133V33.1896L52.6188 33.2574V34.7627L52.334 34.878V35.0679H53.3782V34.878L53.0392 34.7627V32.8438Z" fill="white"/>
<path d="M55.6508 33.6032C55.6508 33.0133 55.4745 32.8438 55.0067 32.8438C54.7378 32.8856 54.4952 33.0287 54.3286 33.2438L54.2472 32.8438L53.6641 33.0743V33.1896L53.9489 33.2438V34.7966L53.6641 34.9119V35.0882H54.6541V34.9119L54.3557 34.7966V33.4405C54.4255 33.3693 54.5089 33.3128 54.6009 33.2743C54.6929 33.2359 54.7917 33.2163 54.8914 33.2167C55.1762 33.2167 55.2915 33.3862 55.2915 33.6846V34.7966H55.0609V34.9661H55.9967V34.7966L55.7051 34.6814L55.6508 33.6032Z" fill="white"/>
<path d="M57.3988 34.7954C56.9241 34.7954 56.6393 34.4563 56.6393 33.9207H58.104C58.104 33.3307 57.8124 32.9307 57.2835 32.9307C57.1364 32.9328 56.9914 32.9654 56.8575 33.0264C56.7237 33.0874 56.6039 33.1754 56.5058 33.285C56.4077 33.3946 56.3334 33.5233 56.2875 33.6631C56.2416 33.8028 56.2252 33.9506 56.2393 34.097V34.1173C56.2271 34.2439 56.2402 34.3715 56.2777 34.493C56.3152 34.6145 56.3763 34.7273 56.4576 34.8251C56.539 34.9228 56.6388 35.0034 56.7515 35.0623C56.8641 35.1212 56.9873 35.1573 57.114 35.1683C57.3302 35.1781 57.5438 35.1173 57.7224 34.995C57.9011 34.8726 58.035 34.6955 58.104 34.4902L57.9887 34.436C57.8433 34.6246 57.6331 34.7527 57.3988 34.7954ZM57.2293 33.107C57.514 33.107 57.6293 33.3918 57.6293 33.6901H56.6393C56.6366 33.6106 56.6498 33.5314 56.6782 33.4571C56.7065 33.3828 56.7494 33.3149 56.8044 33.2574C56.8593 33.1999 56.9252 33.154 56.9982 33.1223C57.0712 33.0907 57.1497 33.0739 57.2293 33.0731V33.107Z" fill="white"/>
<path d="M59.7993 32.8438C59.623 32.8438 59.5077 32.959 59.3246 33.1896L59.1483 33.4133L59.0941 32.8844L58.416 33.115V33.2303L58.7008 33.2845V34.7966L58.416 34.9119V35.0814H59.5213V34.9119L59.1144 34.8509V33.6303L59.406 33.3455L59.7451 33.4608C59.8051 33.4267 59.8537 33.3758 59.8851 33.3143C59.9164 33.2529 59.929 33.1836 59.9214 33.115C59.9214 32.9997 59.8603 32.8844 59.7451 32.8844C59.8535 32.8438 59.7993 32.8438 59.7993 32.8438Z" fill="white"/>
<path d="M61.8341 34.7086V33.5423C61.8341 33.0745 61.6646 32.8643 61.156 32.8643C60.6475 32.8643 60.2813 33.2101 60.2813 33.4474C60.2813 33.5627 60.3423 33.6237 60.5118 33.6237H60.6881V33.1491C60.7543 33.1059 60.8333 33.0868 60.9119 33.0948C61.1425 33.0948 61.3188 33.2643 61.3188 33.6237V33.8543L60.8441 33.9695C60.3694 34.0848 60.166 34.2543 60.166 34.6476C60.166 34.7879 60.2217 34.9224 60.3209 35.0216C60.4201 35.1208 60.5546 35.1765 60.6949 35.1765C60.9865 35.1765 61.1018 35.0612 61.373 34.8307C61.3711 34.8766 61.3787 34.9224 61.3954 34.9653C61.4121 35.0081 61.4375 35.047 61.47 35.0795C61.5025 35.112 61.5414 35.1374 61.5842 35.1541C61.6271 35.1708 61.6729 35.1784 61.7188 35.1765C61.8804 35.1663 62.0389 35.1273 62.1867 35.0612V34.946H61.9629C61.8951 34.7968 61.8341 34.7968 61.8341 34.7086ZM61.373 34.5934C61.3188 34.7086 61.1492 34.7629 61.034 34.8239C60.9921 34.8276 60.9499 34.823 60.9098 34.8104C60.8697 34.7977 60.8325 34.7772 60.8004 34.7501C60.7682 34.723 60.7417 34.6898 60.7225 34.6524C60.7032 34.6151 60.6915 34.5742 60.6881 34.5323V34.4781C60.6881 34.3108 60.8034 34.1956 61.034 34.1323L61.434 34.017V34.6069H61.373V34.5934Z" fill="white"/>
<path d="M63.129 31.7373L62.4238 31.8526V32.0221L62.7086 32.0763V34.7615L62.4238 34.8768V35.0667H63.4138V34.8768L63.129 34.7615V31.7373Z" fill="white"/>
<path d="M66.3301 33.6029C66.5132 33.5735 66.6805 33.4819 66.804 33.3436C66.9275 33.2053 66.9996 33.0287 67.0082 32.8434C67.0082 32.3688 66.5335 32.084 65.7334 32.084H64.6484V32.2535L65.0485 32.3688V34.7963L64.6484 34.9116V35.0811H65.869V34.9116L65.5232 34.7963V33.7724H65.869L66.0385 34.064L66.8047 35.1082H67.5642V34.9387L67.1641 34.7963L66.3301 33.6029ZM65.869 33.5419H65.5232V32.2671C66.2012 32.2671 66.5132 32.4976 66.5132 32.9451C66.4643 33.0938 66.375 33.2258 66.2552 33.3264C66.1354 33.4271 65.9899 33.4923 65.8351 33.5147L65.869 33.5419Z" fill="white"/>
<path d="M68.7848 34.7955C68.3101 34.7955 68.0253 34.4564 68.0253 33.9208H69.4832C69.4832 33.3308 69.1984 32.9308 68.6695 32.9308C68.5209 32.9288 68.3736 32.9585 68.2374 33.018C68.1012 33.0776 67.9793 33.1654 67.8798 33.2758C67.7803 33.3863 67.7056 33.5166 67.6605 33.6582C67.6154 33.7999 67.6011 33.9495 67.6185 34.0971V34.1174C67.6106 34.379 67.7032 34.6337 67.8772 34.8291C68.0512 35.0246 68.2935 35.146 68.5542 35.1684C68.7571 35.1684 68.9562 35.1136 69.1305 35.0098C69.3047 34.9059 69.4477 34.7569 69.5442 34.5785L69.429 34.5175C69.2214 34.6259 69.0061 34.7188 68.7848 34.7955ZM68.5542 33.1071C68.839 33.1071 68.9543 33.3919 68.9543 33.6902H67.9643C67.9771 33.5353 68.0426 33.3895 68.15 33.2772C68.2574 33.1649 68.4001 33.0928 68.5542 33.0732V33.1071Z" fill="white"/>
<path d="M70.8804 33.8334L70.7041 33.7181C70.4193 33.6029 70.3651 33.4876 70.3651 33.3181C70.3622 33.2796 70.3674 33.241 70.3806 33.2047C70.3938 33.1684 70.4146 33.1354 70.4415 33.1078C70.4685 33.0802 70.501 33.0587 70.5369 33.0447C70.5729 33.0307 70.6114 33.0245 70.6499 33.0265C70.7556 33.0295 70.8567 33.0704 70.9347 33.1418L71.111 33.5418H71.1991V32.9587C71.0175 32.8648 70.8128 32.8248 70.6092 32.8434C70.5103 32.8312 70.41 32.8393 70.3143 32.8672C70.2187 32.8951 70.1297 32.9422 70.0529 33.0057C69.9761 33.0692 69.9131 33.1477 69.8676 33.2364C69.8222 33.3251 69.7954 33.4221 69.7887 33.5215C69.7803 33.6612 69.8243 33.7991 69.912 33.9082C69.9998 34.0173 70.1251 34.0898 70.2634 34.1114L70.4329 34.2267C70.7787 34.342 70.8398 34.5115 70.8398 34.7014C70.8347 34.7908 70.7965 34.8752 70.7325 34.9379C70.6686 35.0006 70.5835 35.0372 70.4939 35.0404C70.3695 35.0385 70.2487 34.9983 70.1481 34.9251L69.9176 34.3962H69.748L69.8023 35.0743C70.0056 35.1996 70.2418 35.261 70.4804 35.2506C70.6869 35.2757 70.895 35.2187 71.0598 35.0919C71.2247 34.9651 71.3332 34.7785 71.3619 34.5725C71.4093 34.1928 71.2941 34.0029 70.8804 33.8334Z" fill="white"/>
<path d="M72.8608 32.8438C72.7144 32.847 72.5702 32.8801 72.4369 32.9409C72.3037 33.0017 72.1843 33.0891 72.086 33.1976C71.9876 33.3061 71.9124 33.4335 71.8649 33.572C71.8174 33.7105 71.7986 33.8573 71.8097 34.0033C71.789 34.2735 71.8756 34.5411 72.0508 34.7479C72.2259 34.9548 72.4755 35.0844 72.7455 35.1085H72.8608C73.0078 35.1073 73.1529 35.0755 73.2871 35.0154C73.4212 34.9552 73.5415 34.8679 73.6402 34.759C73.739 34.65 73.8141 34.5218 73.8608 34.3824C73.9075 34.243 73.9249 34.0955 73.9118 33.949C73.9387 33.6871 73.8624 33.4251 73.699 33.2187C73.5356 33.0122 73.2981 32.8777 73.0371 32.8438H72.8608ZM72.915 34.878C72.4403 34.878 72.2369 34.3491 72.2369 33.888C72.2369 33.4269 72.4064 33.0743 72.7658 33.0743C73.1252 33.0743 73.4439 33.4133 73.4439 34.0643C73.4439 34.5322 73.2134 34.878 72.9082 34.878H72.915Z" fill="white"/>
<path d="M76.1893 32.8973L75.3688 32.9583V33.1278L75.7146 33.1889V34.5925C75.5841 34.7079 75.4141 34.7686 75.24 34.762C74.9552 34.762 74.7653 34.5925 74.7653 34.2331V32.877L74.0059 32.938V33.1075L74.2974 33.1685V34.267C74.2974 34.8027 74.5212 35.0333 74.9755 35.0333C75.2622 35.0137 75.532 34.8908 75.735 34.6874L75.8502 35.0333L76.5283 34.918V34.7959L76.1825 34.7417L76.1893 32.8973Z" fill="white"/>
<path d="M78.0545 32.8438C77.8849 32.8438 77.7697 32.959 77.5798 33.1896L77.4103 33.4133L77.3493 32.8844L76.7051 33.115V33.2303L76.9967 33.2845V34.7966L76.7051 34.9119V35.0814H77.8103V34.9119L77.4103 34.8509V33.6303C77.4742 33.5087 77.5735 33.4094 77.6951 33.3455L78.0409 33.4608C78.1003 33.4265 78.1481 33.3753 78.1783 33.3137C78.2084 33.2521 78.2196 33.1829 78.2104 33.115C78.2104 32.9997 78.1562 32.8844 78.0409 32.8844L78.0545 32.8438Z" fill="white"/>
<path d="M79.6342 34.7954C79.5254 34.7923 79.4184 34.7667 79.3199 34.7201C79.2215 34.6735 79.1338 34.607 79.0624 34.5248C78.991 34.4426 78.9375 34.3464 78.9052 34.2424C78.8729 34.1384 78.8625 34.0289 78.8748 33.9207C78.8748 33.446 79.1053 33.107 79.5529 33.107C79.6681 33.107 79.7224 33.107 79.7834 33.1612L79.8377 33.6359H80.014C80.0735 33.6312 80.1295 33.6054 80.1718 33.5631C80.2141 33.5209 80.2398 33.4649 80.2445 33.4053C80.2445 33.1748 79.9529 32.9307 79.5664 32.9307C79.415 32.9341 79.2659 32.9678 79.1276 33.0296C78.9894 33.0913 78.8649 33.1801 78.7613 33.2906C78.6578 33.4011 78.5773 33.5311 78.5246 33.673C78.4719 33.815 78.448 33.966 78.4544 34.1173C78.4336 34.3732 78.5145 34.627 78.6795 34.8237C78.8445 35.0204 79.0803 35.1442 79.3359 35.1683H79.4444C79.618 35.1668 79.7876 35.1155 79.933 35.0206C80.0784 34.9256 80.1936 34.791 80.2648 34.6326L80.1496 34.5784C79.9968 34.6894 79.8204 34.7637 79.6342 34.7954Z" fill="white"/>
<path d="M81.7294 34.7954C81.2547 34.7954 80.9699 34.4563 80.9699 33.9207H82.4346C82.4346 33.3307 82.143 32.9307 81.6141 32.9307C81.4642 32.9323 81.3162 32.9641 81.1789 33.0241C81.0415 33.0841 80.9176 33.171 80.8145 33.2798C80.7115 33.3886 80.6313 33.517 80.5788 33.6574C80.5262 33.7977 80.5025 33.9472 80.5088 34.097V34.1173C80.4993 34.3793 80.5912 34.6349 80.7656 34.8308C80.94 35.0266 81.1832 35.1475 81.4446 35.1683H81.4988C81.7057 35.1655 81.9066 35.0989 82.0741 34.9775C82.2416 34.8561 82.3675 34.6859 82.4346 34.4902L82.3193 34.436C82.1509 34.597 81.9496 34.7196 81.7294 34.7954ZM81.4988 33.107C81.7904 33.107 81.8989 33.3918 81.8989 33.6901H80.9699C80.9529 33.6132 80.9541 33.5333 80.9733 33.4569C80.9924 33.3804 81.0291 33.3095 81.0804 33.2496C81.1317 33.1898 81.1962 33.1427 81.2688 33.112C81.3414 33.0814 81.4202 33.0681 81.4988 33.0731V33.107Z" fill="white"/>
<path d="M83.8238 33.8323L83.5933 33.7171C83.3085 33.6018 83.2475 33.4865 83.2475 33.317C83.2444 33.2779 83.2499 33.2387 83.2634 33.2019C83.277 33.1651 83.2984 33.1317 83.3261 33.104C83.3538 33.0763 83.3872 33.0549 83.4239 33.0414C83.4607 33.0278 83.5 33.0224 83.539 33.0254C83.6447 33.0284 83.7458 33.0693 83.8238 33.1407L84.0001 33.5408H84.0815V32.9576C83.9025 32.8631 83.6998 32.8231 83.4984 32.8423C83.3993 32.8291 83.2986 32.8365 83.2025 32.864C83.1064 32.8915 83.0171 32.9386 82.9401 33.0022C82.863 33.0659 82.8 33.1448 82.7549 33.2339C82.7097 33.3231 82.6835 33.4206 82.6779 33.5204C82.6694 33.6602 82.7134 33.798 82.8012 33.9071C82.8889 34.0162 83.0142 34.0887 83.1525 34.1103L83.3221 34.2256C83.6136 34.3409 83.7289 34.5104 83.7289 34.7003C83.7239 34.7897 83.6857 34.8741 83.6217 34.9368C83.5577 34.9995 83.4726 35.0361 83.3831 35.0393H83.3221C83.1977 35.0375 83.0769 34.9972 82.9762 34.924L82.7525 34.3951H82.5762L82.6372 35.0732C82.8396 35.2005 83.0765 35.2621 83.3153 35.2495C83.521 35.2745 83.7283 35.2173 83.8921 35.0903C84.0559 34.9634 84.1629 34.7769 84.19 34.5714C84.3527 34.1917 84.2375 34.0018 83.8238 33.8323Z" fill="white"/>
<path d="M122.225 38.3829C122.333 38.3218 122.509 38.3218 122.625 38.2676L122.225 38.3829Z" fill="#9E9B9C"/>
<path d="M134.823 21.2891C134.654 24.0014 133.548 28.809 132.111 31.0873C130.89 33.0741 126.741 36.634 123.242 38.0377H123.126C121.37 38.7157 119.275 37.7529 118.041 36.9866H117.986C117.795 36.9 117.616 36.7857 117.458 36.6476C117.227 36.4713 117.051 36.356 117.051 36.356C116.705 36.1255 116.373 35.8271 116.061 35.5966L115.83 35.366C115.709 35.3021 115.609 35.2028 115.545 35.0812L115.071 34.6812L114.596 34.2743L114.121 33.8064L113.443 33.1284C118.665 31.9349 126.869 28.6937 131.48 25.405C133.406 24.0014 134.694 22.6045 134.871 21.384C134.844 21.3592 134.827 21.3255 134.823 21.2891Z" fill="url(#paint0_linear_290_5473)"/>
<path d="M123.039 38.1865C122.917 38.2568 122.779 38.2963 122.639 38.3017L122.238 38.417C122.123 38.4712 122.008 38.4712 121.947 38.5323L121.832 38.5865L121.662 38.6476H121.493C121.412 38.6385 121.33 38.6577 121.262 38.7018C118.55 38.9866 111.091 37.8813 106.446 35.7318L106.276 35.6165L106.046 35.5013C104.814 34.8665 103.705 34.0168 102.771 32.9924C99.5567 29.0256 95.7119 19.4307 95.7662 13.8569C95.8221 12.9454 96.104 12.0622 96.5867 11.287L96.6409 11.2327C96.702 11.1717 96.7019 11.1175 96.7562 11.0564C97.6385 9.75717 98.7702 8.6462 100.086 7.78809C101.611 15.1927 106.507 26.2726 113.281 33.1619L113.959 33.84C114.183 34.0705 114.637 34.4299 114.888 34.7147L115.363 35.1147C115.478 35.23 115.593 35.291 115.648 35.3995L115.878 35.6301C116.193 35.9043 116.524 36.1602 116.868 36.3963C116.993 36.5029 117.127 36.5982 117.268 36.6811C117.456 36.8111 117.653 36.9267 117.858 37.0269H117.919C119.248 37.8067 121.377 38.7967 123.039 38.1865Z" fill="url(#paint1_linear_290_5473)"/>
<path d="M134.823 21.2891V21.3434C134.653 22.6249 133.358 23.9743 131.432 25.3644C128.332 24.2174 125.404 22.6475 122.733 20.6992C115.498 15.5051 110.887 6.81886 104.818 6.40523C103.14 6.31034 101.476 6.75724 100.071 7.68002C98.7536 8.54041 97.6197 9.6536 96.7351 10.9552C96.6808 11.0094 96.6808 11.0704 96.6266 11.1247L96.5656 11.1789C96.0927 11.9662 95.8224 12.8586 95.779 13.776V13.6065C95.7711 13.3316 95.7915 13.0566 95.84 12.786V12.6707C96.7147 6.81886 102.784 0.0990796 107.74 0.214353C113.755 0.390654 118.874 7.5105 123.54 11.8299C127.561 15.5051 130.775 17.0782 132.816 18.414C134.118 19.3634 134.85 20.1228 134.85 21.2891H134.823Z" fill="url(#paint2_linear_290_5473)"/>
</g>
<defs>
<linearGradient id="paint0_linear_290_5473" x1="149.398" y1="29.2735" x2="96.5164" y2="28.4988" gradientUnits="userSpaceOnUse">
<stop offset="0.13" stop-color="#DDD9D7"/>
<stop offset="0.16" stop-color="#CECBC9"/>
<stop offset="0.24" stop-color="#A7A7A6"/>
<stop offset="0.25" stop-color="#A2A2A1"/>
<stop offset="0.28" stop-color="#A9A9A9"/>
<stop offset="0.32" stop-color="#BBBBBB"/>
<stop offset="0.35" stop-color="#ACACAC"/>
<stop offset="0.42" stop-color="#808181"/>
<stop offset="0.48" stop-color="#8D8E8E"/>
<stop offset="0.6" stop-color="#B1B1B1"/>
<stop offset="0.7" stop-color="#D6D6D6"/>
<stop offset="0.72" stop-color="#CCCDCD"/>
<stop offset="0.77" stop-color="#B2B4B4"/>
<stop offset="0.83" stop-color="#878B8C"/>
<stop offset="0.9" stop-color="#4D5455"/>
<stop offset="0.92" stop-color="#707475"/>
<stop offset="0.96" stop-color="#9FA1A1"/>
<stop offset="0.98" stop-color="#BDBDBD"/>
<stop offset="1" stop-color="#C8C7C7"/>
</linearGradient>
<linearGradient id="paint1_linear_290_5473" x1="97.9442" y1="5.11746" x2="144.019" y2="107.226" gradientUnits="userSpaceOnUse">
<stop offset="0.03" stop-color="#4E4D4D"/>
<stop offset="0.04" stop-color="#636363"/>
<stop offset="0.06" stop-color="#737474"/>
<stop offset="0.08" stop-color="#7F7F80"/>
<stop offset="0.11" stop-color="#858687"/>
<stop offset="0.18" stop-color="#878889"/>
<stop offset="0.35" stop-color="#4E4D4D"/>
<stop offset="0.39" stop-color="#6B6A6A"/>
<stop offset="0.45" stop-color="#888787"/>
<stop offset="0.51" stop-color="#9F9E9E"/>
<stop offset="0.58" stop-color="#B2B1B1"/>
<stop offset="0.66" stop-color="#BEBDBD"/>
<stop offset="0.77" stop-color="#C6C5C5"/>
<stop offset="1" stop-color="#C8C7C7"/>
</linearGradient>
<linearGradient id="paint2_linear_290_5473" x1="131.456" y1="25.7865" x2="83.2145" y2="-6.06671" gradientUnits="userSpaceOnUse">
<stop offset="0.03" stop-color="#676767"/>
<stop offset="0.09" stop-color="#7E7E7D"/>
<stop offset="0.16" stop-color="#929291"/>
<stop offset="0.23" stop-color="#9E9E9D"/>
<stop offset="0.29" stop-color="#A2A2A1"/>
<stop offset="0.35" stop-color="#9A9A99"/>
<stop offset="0.44" stop-color="#838383"/>
<stop offset="0.52" stop-color="#676767"/>
<stop offset="0.53" stop-color="#6D6D6D"/>
<stop offset="0.59" stop-color="#979797"/>
<stop offset="0.64" stop-color="#B1B1B1"/>
<stop offset="0.67" stop-color="#BBBBBB"/>
<stop offset="0.71" stop-color="#B9B9B9"/>
<stop offset="0.73" stop-color="#B2B3B4"/>
<stop offset="0.74" stop-color="#A6A8AA"/>
<stop offset="0.75" stop-color="#95999C"/>
<stop offset="0.76" stop-color="#868B8F"/>
<stop offset="0.79" stop-color="#8B9093"/>
<stop offset="0.83" stop-color="#9A9DA0"/>
<stop offset="0.87" stop-color="#B3B4B5"/>
<stop offset="0.9" stop-color="#C8C7C7"/>
<stop offset="0.92" stop-color="#C3C2C3"/>
<stop offset="0.95" stop-color="#B4B4B6"/>
<stop offset="0.98" stop-color="#9B9EA0"/>
<stop offset="1" stop-color="#868B8F"/>
</linearGradient>
<clipPath id="clip0_290_5473">
<rect width="134.864" height="38.5014" fill="white" transform="translate(0 0.213867)"/>
</clipPath>
</defs>
</svg>
