<svg width="35" height="35" viewBox="0 0 35 35" fill="none" xmlns="http://www.w3.org/2000/svg">
<path d="M10.207 13.1396L10.2216 13.1234" stroke="currentColor" stroke-width="1.5" stroke-linecap="round" stroke-linejoin="round"/>
<path d="M16.043 13.1396L16.0576 13.1234" stroke="currentColor" stroke-width="1.5" stroke-linecap="round" stroke-linejoin="round"/>
<path d="M10.207 18.9729L10.2216 18.9567" stroke="currentColor" stroke-width="1.5" stroke-linecap="round" stroke-linejoin="round"/>
<path d="M16.043 18.9729L16.0576 18.9567" stroke="currentColor" stroke-width="1.5" stroke-linecap="round" stroke-linejoin="round"/>
<path d="M10.207 24.8062L10.2216 24.79" stroke="currentColor" stroke-width="1.5" stroke-linecap="round" stroke-linejoin="round"/>
<path d="M16.043 24.8062L16.0576 24.79" stroke="currentColor" stroke-width="1.5" stroke-linecap="round" stroke-linejoin="round"/>
<path d="M21.875 30.625H4.975C4.64363 30.625 4.375 30.3564 4.375 30.025V7.89167C4.375 7.5603 4.64363 7.29167 4.975 7.29167H13.125V4.975C13.125 4.64363 13.3936 4.375 13.725 4.375H21.275C21.6064 4.375 21.875 4.64363 21.875 4.975V13.125M21.875 30.625H30.025C30.3564 30.625 30.625 30.3564 30.625 30.025V13.725C30.625 13.3936 30.3564 13.125 30.025 13.125H21.875M21.875 30.625V24.7917M21.875 13.125V18.9583M21.875 18.9583H24.7917M21.875 18.9583V24.7917M21.875 24.7917H24.7917" stroke="currentColor" stroke-width="1.5" stroke-linecap="round" stroke-linejoin="round"/>
</svg>
