<svg width="46" height="43" viewBox="0 0 46 43" fill="none" xmlns="http://www.w3.org/2000/svg">
<path d="M35.8014 37.8762C32.1281 40.5564 27.7043 42 23.164 42C18.6236 42 14.1998 40.5564 10.5265 37.8762M32.589 1.00021C36.6698 2.99914 40.0158 6.24422 42.1474 10.2704C44.279 14.2965 45.0867 18.897 44.4548 23.4126M1.87332 23.4124C1.24143 18.8968 2.04915 14.2963 4.18072 10.2702C6.3123 6.24401 9.65829 2.99893 13.7392 1M34.989 20.4075C34.989 26.9663 29.6947 32.2834 23.164 32.2834C16.6332 32.2834 11.3389 26.9663 11.3389 20.4075C11.3389 13.8486 16.6332 8.53156 23.164 8.53156C29.6947 8.53156 34.989 13.8486 34.989 20.4075Z" stroke="currentColor" stroke-width="2" stroke-linecap="round" stroke-linejoin="round"/>
</svg>
