<svg width="34" height="34" viewBox="0 0 34 34" fill="none" xmlns="http://www.w3.org/2000/svg">
<path d="M9.91797 25.5V24C9.91797 20.134 13.052 17 16.918 17H17.0846C20.9506 17 24.0846 20.134 24.0846 24V25.5" stroke="currentColor" stroke-width="1.5" stroke-linecap="round" stroke-linejoin="round"/>
<path d="M1.41797 25.5V24.0833C1.41797 21.7361 3.32076 19.8333 5.66797 19.8333V19.8333" stroke="currentColor" stroke-width="1.5" stroke-linecap="round" stroke-linejoin="round"/>
<path d="M32.582 25.5V24.0833C32.582 21.7361 30.6792 19.8333 28.332 19.8333V19.8333" stroke="currentColor" stroke-width="1.5" stroke-linecap="round" stroke-linejoin="round"/>
<path d="M17 17C19.3472 17 21.25 15.0972 21.25 12.75C21.25 10.4028 19.3472 8.5 17 8.5C14.6528 8.5 12.75 10.4028 12.75 12.75C12.75 15.0972 14.6528 17 17 17Z" stroke="currentColor" stroke-width="1.5" stroke-linecap="round" stroke-linejoin="round"/>
<path d="M5.66536 19.8334C7.23017 19.8334 8.4987 18.5648 8.4987 17C8.4987 15.4352 7.23017 14.1667 5.66536 14.1667C4.10056 14.1667 2.83203 15.4352 2.83203 17C2.83203 18.5648 4.10056 19.8334 5.66536 19.8334Z" stroke="currentColor" stroke-width="1.5" stroke-linecap="round" stroke-linejoin="round"/>
<path d="M28.3333 19.8334C29.8981 19.8334 31.1667 18.5648 31.1667 17C31.1667 15.4352 29.8981 14.1667 28.3333 14.1667C26.7685 14.1667 25.5 15.4352 25.5 17C25.5 18.5648 26.7685 19.8334 28.3333 19.8334Z" stroke="currentColor" stroke-width="1.5" stroke-linecap="round" stroke-linejoin="round"/>
</svg>
