<svg width="20" height="20" viewBox="0 0 20 20" fill="none" xmlns="http://www.w3.org/2000/svg">
<g clip-path="url(#clip0_78_21455)">
<path d="M7.5013 4.99996L4.33464 5.00002C3.40121 5.00002 2.9345 5.00002 2.57798 5.18168C2.26438 5.34147 2.00941 5.59644 1.84962 5.91004C1.66797 6.26656 1.66797 7.56661 1.66797 8.50003V11.5C1.66797 12.4335 1.66797 13.7335 1.84962 14.09C2.00941 14.4036 2.26438 14.6586 2.57798 14.8184C2.9345 15.0001 3.40121 15.0001 4.33464 15.0001L7.5013 15M10.8346 4.99996L15.668 5.00002C16.6014 5.00002 17.0681 5.00002 17.4246 5.18168C17.7382 5.34147 17.9932 5.59644 18.153 5.91004C18.3346 6.26656 18.3346 6.73327 18.3346 7.6667V12.3334C18.3346 13.2668 18.3346 13.7335 18.153 14.09C17.9932 14.4036 17.7382 14.6586 17.4246 14.8184C17.0681 15.0001 16.6014 15.0001 15.668 15.0001L10.8346 15M10.8346 18.3333L10.8346 1.66663" stroke="currentColor" stroke-width="1.66667" stroke-linecap="round" stroke-linejoin="round"/>
</g>
<defs>
<clipPath id="clip0_78_21455">
<rect width="20" height="20" fill="white"/>
</clipPath>
</defs>
</svg>
