<svg width="34" height="34" viewBox="0 0 34 34" fill="none" xmlns="http://www.w3.org/2000/svg">
<path d="M11.3333 26.9167C12.8981 26.9167 14.1667 25.6481 14.1667 24.0833C14.1667 22.5185 12.8981 21.25 11.3333 21.25C9.76853 21.25 8.5 22.5185 8.5 24.0833C8.5 25.6481 9.76853 26.9167 11.3333 26.9167Z" stroke="currentColor" stroke-width="1.5" stroke-miterlimit="1.5" stroke-linecap="round" stroke-linejoin="round"/>
<path d="M25.5013 26.9167C27.0661 26.9167 28.3346 25.6481 28.3346 24.0833C28.3346 22.5185 27.0661 21.25 25.5013 21.25C23.9365 21.25 22.668 22.5185 22.668 24.0833C22.668 25.6481 23.9365 26.9167 25.5013 26.9167Z" stroke="currentColor" stroke-width="1.5" stroke-miterlimit="1.5" stroke-linecap="round" stroke-linejoin="round"/>
<path d="M14.2388 24.0833H21.2513V9.1C21.2513 8.76863 20.9827 8.5 20.6513 8.5H1.41797" stroke="currentColor" stroke-width="1.5" stroke-linecap="round"/>
<path d="M8.00417 24.0833H4.85C4.51863 24.0833 4.25 23.8147 4.25 23.4833V16.2917" stroke="currentColor" stroke-width="1.5" stroke-linecap="round"/>
<path d="M2.83203 12.75L8.4987 12.75" stroke="currentColor" stroke-width="1.5" stroke-linecap="round" stroke-linejoin="round"/>
<path d="M21.25 12.75H29.3601C29.5972 12.75 29.8121 12.8896 29.9084 13.1063L32.5316 19.0086C32.5657 19.0854 32.5833 19.1684 32.5833 19.2523V23.4833C32.5833 23.8147 32.3147 24.0833 31.9833 24.0833H29.0417" stroke="currentColor" stroke-width="1.5" stroke-linecap="round"/>
<path d="M21.25 24.0833H22.6667" stroke="currentColor" stroke-width="1.5" stroke-linecap="round"/>
</svg>
