<svg width="20" height="20" viewBox="0 0 20 20" fill="none" xmlns="http://www.w3.org/2000/svg" stroke-width="1.66667">
<path d="M9.9069 18.3334C13.5888 18.3334 16.5736 15.3486 16.5736 11.6667C16.5736 10.7826 16.4015 9.93872 16.089 9.16669C15.5589 7.85717 13.821 4.96348 12.3224 3.33335C9.07357 5.00002 8.24023 1.66669 8.24023 1.66669C8.24023 1.66669 4.71381 6.7235 3.72483 9.16669C3.41232 9.93872 3.24023 10.7826 3.24023 11.6667C3.24023 15.3486 6.225 18.3334 9.9069 18.3334ZM9.9069 18.3334C11.7479 18.3334 13.2402 16.8411 13.2402 15.0002C13.2402 14.5581 13.1542 14.1362 12.9979 13.7502C12.5035 12.5286 9.90691 10.0002 9.90691 10.0002C9.90691 10.0002 7.31036 12.5286 6.81587 13.7502C6.65962 14.1362 6.57357 14.5581 6.57357 15.0002C6.57357 16.8411 8.06595 18.3334 9.9069 18.3334Z" stroke="currentColor" stroke-linecap="round" stroke-linejoin="round"/>
</svg>
