<svg width="44" height="44" viewBox="0 0 44 44" fill="none" xmlns="http://www.w3.org/2000/svg">
<path d="M6.2471 43V32.4981M6.2471 11.502V1M1 6.25486H11.502M1 37.7452H11.502M24.0996 3.10351L20.4593 12.5731C19.8694 14.11 19.5745 14.8784 19.1087 15.5304C18.6973 16.1048 18.2006 16.6016 17.6262 17.0129C16.9819 17.4709 16.2057 17.7736 14.6688 18.3635L5.20702 22.0039L14.6688 25.6442C16.2057 26.2341 16.9742 26.5291 17.6262 26.9948C18.2006 27.4062 18.7051 27.903 19.1087 28.4774C19.5667 29.1216 19.8616 29.8978 20.4593 31.4347L24.0996 40.9043L27.74 31.4347C28.3299 29.8978 28.6249 29.1294 29.0906 28.4774C29.502 27.903 29.9988 27.4062 30.5732 26.9948C31.2174 26.5369 31.9936 26.2341 33.5304 25.6442L43 22.0039L33.5304 18.3635C31.9936 17.7736 31.2252 17.4787 30.5732 17.0129C29.9988 16.6016 29.4942 16.1048 29.0906 15.5304C28.6327 14.8862 28.3377 14.11 27.74 12.5731L24.0996 3.10351Z" stroke="currentColor" stroke-width="2" stroke-linecap="round" stroke-linejoin="round"/>
</svg>
