<svg width="27" height="30" viewBox="0 0 27 30" fill="none" xmlns="http://www.w3.org/2000/svg">
<path d="M26.7861 24.457C26.6091 25.8885 26.5321 26.509 25.8711 27.9043L15.7197 30C15.953 28.4923 16.2642 27.3296 16.7695 26.6318L26.7861 24.457ZM12.6475 14.585L15.6807 13.9268V4.3418C16.8109 3.07307 17.5058 2.50334 18.8701 1.7832V13.2344L26.7861 11.5156C26.6091 12.9471 26.5321 13.5677 25.8711 14.9629L18.8701 16.4424V19.6621L26.7861 17.9873C26.6091 19.4185 26.5322 20.0392 25.8711 21.4346L18.8701 22.8799V22.9102L15.6807 23.5693V17.1172L12.6475 17.7578V21.8242L12.5957 21.834C11.898 23.0574 10.9133 24.5277 9.96387 25.7012L0 27.5977C0.0893374 26.3158 0.276761 25.594 0.856445 24.3027L9.45801 22.4375V18.4326L1.48535 20.1191C1.57468 18.8373 1.76124 18.1153 2.34082 16.8242L9.45801 15.2783V2.55859C10.5883 1.28986 11.2832 0.720137 12.6475 0V14.585Z" fill="currentColor"/>
</svg>
