<svg width="248" height="28" viewBox="0 0 248 28" fill="none" xmlns="http://www.w3.org/2000/svg">
<path d="M31.7714 21.7413C30.7006 21.7413 29.7044 21.5363 28.7828 21.1285C27.8612 20.7185 27.0537 20.1499 26.3625 19.4181C25.6691 18.6863 25.1315 17.8289 24.7453 16.8458C24.3591 15.8628 24.166 14.8048 24.166 13.6718C24.166 12.5389 24.3591 11.4831 24.7453 10.5089C25.1315 9.53242 25.6691 8.68382 26.3625 7.95865C27.0559 7.23348 27.8612 6.66701 28.7828 6.25924C29.7044 5.84927 30.7006 5.64648 31.7714 5.64648C33.0572 5.64648 34.2312 5.91318 35.2954 6.44218C36.3596 6.97339 37.2461 7.71839 37.9526 8.67941C38.6592 9.64042 39.1068 10.7601 39.2911 12.0363H36.7853C36.6427 11.2032 36.3355 10.4648 35.8637 9.81896C35.3919 9.17314 34.8104 8.67059 34.1171 8.31351C33.4237 7.95424 32.6491 7.77571 31.7933 7.77571C31.0363 7.77571 30.3407 7.91897 29.7044 8.20551C29.068 8.49205 28.5195 8.90203 28.0543 9.43323C27.5891 9.96444 27.2336 10.5882 26.9835 11.3046C26.7333 12.0231 26.6082 12.81 26.6082 13.6718C26.6082 14.5337 26.7333 15.325 26.9835 16.0501C27.2336 16.7753 27.5913 17.4035 28.0543 17.9325C28.5173 18.4637 29.068 18.8759 29.7044 19.169C30.3407 19.4644 31.0363 19.6098 31.7933 19.6098C32.6513 19.6098 33.4281 19.4269 34.128 19.061C34.828 18.6951 35.4095 18.1882 35.8747 17.5445C36.3377 16.8987 36.6427 16.1603 36.7853 15.3272H39.2911C39.1046 16.6034 38.6592 17.7231 37.9526 18.6841C37.2461 19.6451 36.3596 20.3945 35.2954 20.9323C34.2312 21.4702 33.0572 21.7391 31.7714 21.7391V21.7413Z" fill="white"/>
<path d="M46.1064 21.6337C45.3055 21.6337 44.5682 21.486 43.888 21.1929C43.21 20.8997 42.6197 20.4831 42.1194 19.9453C41.6191 19.4075 41.2307 18.7793 40.9521 18.063C40.6734 17.3466 40.5352 16.5641 40.5352 15.7177C40.5352 14.8713 40.6734 14.0889 40.9521 13.3725C41.2307 12.6562 41.6191 12.028 42.1194 11.4901C42.6197 10.9523 43.2078 10.5357 43.888 10.2426C44.566 9.94944 45.3055 9.80176 46.1064 9.80176C46.9073 9.80176 47.6665 9.94944 48.3446 10.2426C49.0226 10.5379 49.6085 10.9523 50.1022 11.4901C50.5959 12.028 50.9799 12.6562 51.2586 13.3725C51.5372 14.0911 51.6755 14.8713 51.6755 15.7177C51.6755 16.5641 51.5372 17.3466 51.2586 18.063C50.9799 18.7815 50.5937 19.4075 50.1022 19.9453C49.6085 20.4831 49.0226 20.8997 48.3446 21.1929C47.6665 21.486 46.9205 21.6337 46.1064 21.6337ZM46.1064 19.7183C46.734 19.7183 47.3023 19.5574 47.8092 19.2334C48.316 18.9116 48.7154 18.4487 49.0094 17.8448C49.3013 17.243 49.4483 16.5311 49.4483 15.7133C49.4483 14.8956 49.3013 14.1682 49.0094 13.5709C48.7176 12.9758 48.316 12.5195 47.8092 12.2043C47.3023 11.8891 46.734 11.7304 46.1064 11.7304C45.4788 11.7304 44.9303 11.8891 44.4234 12.2043C43.9165 12.5195 43.5172 12.9758 43.2231 13.5709C42.9313 14.166 42.7843 14.8801 42.7843 15.7133C42.7843 16.5465 42.9313 17.2408 43.2231 17.8448C43.515 18.4465 43.9165 18.9094 44.4234 19.2334C44.9303 19.5574 45.492 19.7183 46.1064 19.7183Z" fill="white"/>
<path d="M55.1245 21.4192H52.9609V10.0126H54.9753C54.5452 10.7951 54.1129 11.5798 53.6828 12.3623C53.9023 12.0272 54.2468 11.5798 54.758 11.1456C55.5085 10.5064 56.2326 10.2242 56.4915 10.1317C58.056 9.57179 59.7654 9.79001 60.687 10.4116C61.2948 10.8194 61.7271 11.4057 61.9838 12.1661C62.3831 11.4343 62.9054 10.8568 63.5483 10.4336C64.1912 10.0104 64.9482 9.79883 65.8194 9.79883C66.9911 9.79883 67.9215 10.1691 68.6149 10.9075C69.3083 11.6459 69.655 12.6907 69.655 14.0396V21.4214H67.4914V14.7273C67.4914 13.7663 67.2851 13.0235 66.8704 12.4989C66.4557 11.9743 65.8567 11.7142 65.0711 11.7142C64.5862 11.7142 64.1386 11.8465 63.7326 12.1132C63.3245 12.3799 62.9997 12.748 62.7584 13.2219C62.5148 13.6958 62.3941 14.2468 62.3941 14.8794V21.4214H60.2306V14.7273C60.2306 13.7663 60.0265 13.0235 59.6206 12.4989C59.2146 11.9743 58.609 11.7142 57.8103 11.7142C57.31 11.7142 56.858 11.8465 56.4498 12.1132C56.0439 12.3799 55.7213 12.748 55.4865 13.2219C55.2517 13.6958 55.1333 14.2468 55.1333 14.8794V21.4214L55.1245 21.4192Z" fill="white"/>
<path d="M81.7794 15.7147C81.7794 16.8631 81.5731 17.8814 81.1584 18.7697C80.7437 19.6602 80.1622 20.3589 79.4118 20.868C78.6613 21.3772 77.7792 21.6329 76.7655 21.6329C75.9931 21.6329 75.2931 21.4455 74.6656 21.073C74.0358 20.7005 73.5158 20.1693 73.1011 19.4794V25.5695H70.9375V10.0103H72.9519C72.5218 10.7928 72.0917 11.5775 71.6616 12.36C71.7143 12.3005 71.7999 12.2079 71.9074 12.0999C72.4208 11.5819 74.2311 9.75686 76.7655 9.79654C77.1999 9.80315 78.319 9.81858 79.4118 10.5614C80.1622 11.0705 80.7437 11.7693 81.1584 12.6597C81.5731 13.5502 81.7794 14.5685 81.7794 15.7169V15.7147ZM79.5303 15.7147C79.5303 14.4385 79.2275 13.451 78.6197 12.7545C78.0118 12.058 77.2438 11.7097 76.3157 11.7097C75.7166 11.7097 75.1724 11.8685 74.6875 12.1836C74.2026 12.4988 73.8164 12.9507 73.5311 13.5392C73.2459 14.1277 73.1032 14.8529 73.1032 15.7125C73.1032 16.5721 73.2459 17.2576 73.5311 17.855C73.8164 18.4501 74.2026 18.9063 74.6875 19.2215C75.1724 19.5367 75.7166 19.6954 76.3157 19.6954C77.2438 19.6954 78.0118 19.3516 78.6197 18.6617C79.2275 17.974 79.5303 16.9909 79.5303 15.7125V15.7147Z" fill="white"/>
<path d="M90.4091 21.4192C90.8063 20.6962 91.2057 19.9754 91.6028 19.2525C91.2101 19.7484 90.4508 20.5595 89.2396 21.104C88.0284 21.6462 86.9905 21.6396 86.7645 21.6352C86.24 21.6219 84.952 21.5867 83.936 20.6984C83.2207 20.0746 82.8652 19.2393 82.8652 18.1901C82.8652 17.0704 83.3041 16.224 84.184 15.6509C85.0617 15.0778 86.3454 14.789 88.0306 14.789C88.3597 14.789 88.6801 14.7957 88.9938 14.8111C89.3076 14.8243 89.6938 14.8618 90.1502 14.9191V14.0793C90.1502 13.277 89.944 12.6488 89.5292 12.197C89.1145 11.7451 88.5286 11.5181 87.7716 11.5181C87.0146 11.5181 86.3607 11.7429 85.8977 12.197C85.4325 12.6488 85.1868 13.2704 85.1582 14.0595H83.1878C83.2163 13.1976 83.427 12.4482 83.8197 11.8112C84.2125 11.172 84.7479 10.6783 85.426 10.3256C86.104 9.97516 86.8851 9.79883 87.7716 9.79883C89.1716 9.79883 90.2599 10.1757 91.0389 10.9296C91.8179 11.6834 92.2063 12.7414 92.2063 14.1036V21.4214H90.4069L90.4091 21.4192ZM84.9235 18.1262C84.9235 18.7147 85.1297 19.1886 85.5444 19.5456C85.9591 19.9049 86.5077 20.0834 87.1945 20.0834C88.1095 20.0834 88.8293 19.8212 89.3581 19.2988C89.8869 18.7742 90.1502 18.0755 90.1502 17.2004V16.2747C89.7355 16.2328 89.3712 16.1997 89.0575 16.1777C88.7437 16.1556 88.4431 16.1446 88.1578 16.1446C87.0717 16.1446 86.262 16.3055 85.7266 16.6295C85.1912 16.9535 84.9235 17.4517 84.9235 18.1262Z" fill="white"/>
<path d="M103.243 18.0184C103.243 19.1381 102.828 20.0198 102.001 20.6656C101.172 21.3114 100.002 21.6332 98.4881 21.6332C96.974 21.6332 95.8286 21.2828 94.9641 20.5796C94.0995 19.8765 93.6102 18.9155 93.4961 17.6966H95.5741C95.6026 18.4151 95.8857 18.9772 96.4211 19.3872C96.9565 19.7972 97.6608 19.9999 98.532 19.9999C99.289 19.9999 99.899 19.8633 100.364 19.59C100.827 19.3166 101.06 18.9155 101.06 18.3843C101.06 17.9104 100.906 17.5533 100.599 17.3087C100.292 17.064 99.7805 16.8788 99.0674 16.7488L97.2242 16.405C96.1819 16.2044 95.3744 15.8341 94.8039 15.2963C94.2334 14.7584 93.9459 14.0597 93.9459 13.1979C93.9459 12.5234 94.1281 11.9327 94.4923 11.4213C94.8566 10.9122 95.3678 10.5132 96.0239 10.2267C96.68 9.94015 97.4458 9.79688 98.3169 9.79688C99.2319 9.79688 100.031 9.95117 100.717 10.2598C101.402 10.5683 101.953 11.007 102.368 11.5734C102.782 12.1399 103.017 12.8188 103.074 13.6079H100.996C100.924 12.9334 100.654 12.4022 100.182 12.0143C99.7103 11.6263 99.0959 11.4324 98.3389 11.4324C97.6543 11.4324 97.0991 11.5712 96.6778 11.8512C96.2565 12.1311 96.0459 12.5146 96.0459 13.0017C96.0459 13.4602 96.1995 13.8084 96.5067 14.0465C96.8139 14.2823 97.3097 14.4741 97.9966 14.6174L99.9253 14.9833C101.053 15.1838 101.889 15.5365 102.431 16.0369C102.973 16.5394 103.245 17.1985 103.245 18.0162L103.243 18.0184Z" fill="white"/>
<path d="M114.276 18.0184C114.276 19.1381 113.862 20.0198 113.034 20.6656C112.205 21.3114 111.035 21.6332 109.521 21.6332C108.007 21.6332 106.862 21.2828 105.997 20.5796C105.133 19.8765 104.643 18.9155 104.529 17.6966H106.607C106.636 18.4151 106.919 18.9772 107.454 19.3872C107.99 19.7972 108.694 19.9999 109.565 19.9999C110.322 19.9999 110.932 19.8633 111.397 19.59C111.86 19.3166 112.093 18.9155 112.093 18.3843C112.093 17.9104 111.939 17.5533 111.632 17.3087C111.325 17.064 110.814 16.8788 110.101 16.7488L108.257 16.405C107.215 16.2044 106.408 15.8341 105.837 15.2963C105.267 14.7584 104.979 14.0597 104.979 13.1979C104.979 12.5234 105.161 11.9327 105.526 11.4213C105.89 10.9122 106.401 10.5132 107.057 10.2267C107.713 9.94015 108.479 9.79688 109.35 9.79688C110.265 9.79688 111.064 9.95117 111.751 10.2598C112.435 10.5683 112.986 11.007 113.401 11.5734C113.815 12.1399 114.05 12.8188 114.107 13.6079H112.029C111.957 12.9334 111.687 12.4022 111.215 12.0143C110.743 11.6263 110.129 11.4324 109.372 11.4324C108.687 11.4324 108.132 11.5712 107.711 11.8512C107.29 12.1311 107.079 12.5146 107.079 13.0017C107.079 13.4602 107.233 13.8084 107.54 14.0465C107.847 14.2823 108.343 14.4741 109.03 14.6174L110.959 14.9833C112.086 15.1838 112.922 15.5365 113.464 16.0369C114.006 16.5394 114.278 17.1985 114.278 18.0162L114.276 18.0184Z" fill="white"/>
<path d="M17.1592 6.25524L0 10.9567L9.5824 4.08194C10.4053 3.49123 11.487 3.40526 12.3911 3.85932L17.1592 6.25524Z" fill="white"/>
<path d="M16.9568 20.5797L12.4805 23.4914L17.1609 6.25488L18.1922 18.0383C18.2799 19.05 17.806 20.0287 16.9568 20.5819V20.5797Z" fill="white"/>
<path d="M12.4808 23.4899L1.51161 17.9817C0.585631 17.5166 0.00195312 16.5666 0.00195312 15.5285V10.957L12.4808 23.4921V23.4899Z" fill="white"/>
<g clip-path="url(#clip0_144_2855)">
<path d="M153.085 4.94158L153.499 4.46817L153.961 4.94158H154.043L154.538 4.38434L153.999 3.83203H153.917L153.499 4.30051L153.042 3.83203H153.004L152.465 4.38434L153.004 4.94158H153.085Z" fill="white"/>
<path d="M152.757 8.97042C153.038 8.9687 153.314 8.89586 153.561 8.75837L153.681 8.26524C153.806 9.19726 154.162 9.5819 154.883 9.5819H169.222C170.159 9.57064 171.09 9.42626 171.988 9.15288L172.652 8.94576L172.854 8.10251L172.801 8.0384L172.137 8.20607C171.098 8.45756 170.03 8.12223 170.03 7.48609C170.03 6.99296 170.569 6.72174 171.069 6.72174C171.532 6.71299 171.984 6.86409 172.354 7.15076L172.517 6.94365C172.18 6.22368 171.772 5.83904 171.233 5.83904C170.449 5.83904 169.746 6.72174 169.746 7.66362C169.75 7.85927 169.795 8.05181 169.878 8.22801C169.961 8.40422 170.08 8.55991 170.227 8.6844C169.908 8.7242 169.587 8.73904 169.265 8.72879H155.028C154.364 8.72879 154.2 8.47729 154.119 7.70307L153.869 5.4248H153.662L153.378 6.14478L152.714 6.61325C151.921 7.1409 151.637 7.51568 151.637 8.02854C151.648 8.16658 151.686 8.30088 151.749 8.4235C151.812 8.54611 151.898 8.65454 152.003 8.74236C152.107 8.83019 152.228 8.89562 152.358 8.9348C152.487 8.97397 152.623 8.98608 152.757 8.97042ZM152.503 7.22473L153.407 6.7316L153.561 7.94471C153.287 8.06239 152.992 8.11952 152.695 8.11237C152.214 8.11237 151.911 7.98909 151.911 7.76718C151.911 7.54527 152.118 7.39733 152.503 7.22473Z" fill="white"/>
<path d="M175.352 9.5633H181.523C181.819 9.54944 182.104 9.44842 182.345 9.27235C182.389 9.10469 182.427 8.98141 182.47 8.80388C182.552 9.05391 182.717 9.26674 182.935 9.40545C183.154 9.54415 183.413 9.6 183.668 9.5633H185.453C185.625 9.56628 185.796 9.52924 185.953 9.45495C186.109 9.38065 186.247 9.27103 186.357 9.13428C186.949 9.52499 187.639 9.73217 188.343 9.73097C189.137 9.74048 189.926 9.59487 190.667 9.30194C191.05 9.50447 191.476 9.60614 191.908 9.59782C192.405 9.59039 192.892 9.4419 193.312 9.1688C193.461 8.79022 193.53 8.3834 193.514 7.97542V4.7602L193.933 4.43967V4.37556L193.514 3.88243V3.22656H193.432C192.894 3.61614 192.773 4.03037 193.057 4.45939L193.182 8.48827C192.862 8.60612 192.522 8.66294 192.182 8.65594C191.936 8.65594 191.701 8.61649 191.441 8.61649C191.551 8.33442 191.605 8.03262 191.6 7.72885C191.609 7.36985 191.48 7.0216 191.24 6.7595C191.001 6.49739 190.67 6.3425 190.32 6.32836H190.277C189.411 6.32836 188.579 7.00888 187.468 8.6658C187.266 8.623 187.07 8.55338 186.886 8.45869L187.304 7.862L187.102 7.69433L186.819 8.12336C186.681 8.33686 186.488 8.50618 186.26 8.61176C186.033 8.71734 185.782 8.75488 185.534 8.72005H183.913C183.211 8.72005 182.951 8.55238 182.951 8.03952V7.2801H182.668L182.466 8.508C182.169 8.66473 181.837 8.7379 181.504 8.72005H175.534C174.832 8.72005 174.572 8.508 174.572 7.95569V3.23643H174.341L173.928 4.04023L174.048 7.94583C174.029 9.13428 174.394 9.5633 175.352 9.5633ZM189.921 7.22586C190.221 7.24292 190.51 7.35426 190.746 7.5448C190.983 7.73533 191.156 7.99584 191.244 8.29102C190.354 8.67006 189.398 8.85804 188.435 8.84333C188.213 8.8373 187.992 8.80923 187.776 8.7595C188.637 7.69433 189.209 7.22586 189.921 7.22586Z" fill="white"/>
<path d="M182.845 6.58762L183.374 6.03532L182.845 5.52246H182.754L182.225 6.03532L182.754 6.58762H182.845Z" fill="white"/>
<path d="M195.499 9.56223L195.754 8.5809V3.23535H195.46L195.09 4.03916L195.215 9.56223H195.499Z" fill="white"/>
<path d="M199.145 5.70227L199.601 5.2338L200.01 5.70227H200.092L200.631 5.14996L200.092 4.59766H200.01L199.601 5.02175L199.145 4.59766H199.063L198.562 5.14996L199.106 5.70227H199.145Z" fill="white"/>
<path d="M199.564 9.6901C200.387 9.6901 200.887 9.04903 200.887 8.12194C200.887 7.27868 200.512 6.76583 199.026 6.14941L198.982 6.18886V7.03705C198.605 7.45661 198.373 7.99231 198.323 8.56083C198.312 8.70911 198.331 8.85817 198.377 8.99907C198.423 9.13997 198.497 9.2698 198.594 9.38078C198.69 9.49176 198.808 9.5816 198.939 9.64492C199.07 9.70824 199.213 9.74373 199.358 9.74927C199.419 9.70877 199.491 9.68815 199.564 9.6901ZM199.31 7.26882C200.214 7.69292 200.551 8.02824 200.551 8.32905C200.551 8.62986 200.214 8.82219 199.589 8.82219C198.963 8.82219 198.627 8.61507 198.627 8.26988C198.667 8.06374 198.748 7.86838 198.866 7.6961C198.983 7.52382 199.134 7.37835 199.31 7.26882Z" fill="white"/>
<path d="M200.844 10.7845V11.036L202.412 11.5292C203.122 10.6612 203.534 9.57847 203.585 8.44709C203.546 7.78422 203.346 7.14191 203.003 6.57812H202.758L202.474 7.2981C203.056 8.05752 203.258 8.40271 203.258 8.86132C203.239 9.77362 202.373 10.4098 200.844 10.7845Z" fill="white"/>
<path d="M205.019 9.56223L205.264 8.5809V3.23535H205.019L204.605 4.03916L204.779 9.56223H205.019Z" fill="white"/>
<path d="M207.962 8.4969C207.924 7.83388 207.724 7.19136 207.38 6.62793H207.13L206.842 7.3479C207.424 8.11226 207.626 8.45745 207.626 8.91606C207.626 9.67548 206.76 10.356 205.221 10.7406V10.9921L206.789 11.4853C207.491 10.6494 207.904 9.59857 207.962 8.4969Z" fill="white"/>
<path d="M207.169 5.99124L207.67 5.43893L207.131 4.89648H207.088L206.549 5.43893L207.088 5.99124H207.169Z" fill="white"/>
<path d="M211.283 8.413C211.283 7.26893 210.744 6.33691 210.042 6.33691C209.421 6.33691 208.801 7.22455 208.801 8.12205C208.779 8.39598 208.86 8.66812 209.029 8.88203C209.197 9.09595 209.439 9.23524 209.705 9.27105H209.907C210.177 9.27543 210.445 9.21816 210.691 9.10338L210.936 8.46724C210.973 8.607 210.987 8.75181 210.98 8.89627C210.98 9.88253 209.979 10.5532 208.209 10.8688V11.1154L209.787 11.6085C210.671 10.7827 211.207 9.63684 211.283 8.413ZM209.989 8.38341C209.45 8.38341 209.123 8.25519 209.123 7.95438C209.12 7.85737 209.137 7.76083 209.172 7.67071C209.207 7.58059 209.26 7.4988 209.327 7.43041C209.394 7.36202 209.474 7.30846 209.563 7.27306C209.651 7.23765 209.745 7.22114 209.84 7.22455C210.253 7.22455 210.701 7.69302 210.874 8.24533C210.586 8.33285 210.288 8.37931 209.989 8.38341Z" fill="white"/>
<path d="M153.917 13.5068L153.499 13.9654L153.042 13.5068H153.004L152.465 14.0493L153.004 14.6065H153.085L153.499 14.143L153.961 14.6065H154.043L154.538 14.0493L153.999 13.5068H153.917Z" fill="white"/>
<path d="M163.763 19.9473H163.681L163.263 20.4207L162.806 19.9473H162.767L162.229 20.5045L162.767 21.0568H162.849L163.263 20.5834L163.724 21.0568H163.806L164.302 20.5045L163.763 19.9473Z" fill="white"/>
<path d="M167.736 19.188H169.395C169.927 19.1888 170.45 19.0568 170.92 18.8034C171.068 18.4242 171.138 18.0181 171.127 17.61C171.118 17.1398 170.972 16.6832 170.708 16.2983H170.463L170.179 17.0182C170.471 17.3133 170.685 17.6799 170.8 18.0834C170.349 18.2473 169.874 18.3307 169.395 18.33H164.508C163.806 18.33 163.546 18.1623 163.546 17.6544V16.89H163.301L163.099 18.1228C162.802 18.2774 162.47 18.3489 162.137 18.33H155.028C154.364 18.33 154.2 18.0834 154.119 17.3092L153.878 15.0654H153.671L153.388 15.7805L152.724 16.2736C151.921 16.816 151.637 17.1514 151.637 17.7037C151.637 18.256 152.118 18.6357 152.757 18.6357C153.038 18.634 153.314 18.5611 153.561 18.4237C153.599 18.256 153.643 18.0834 153.681 17.9305C153.806 18.8576 154.162 19.2423 154.883 19.2423H162.147C162.443 19.2343 162.731 19.1327 162.969 18.9513C163.008 18.7836 163.051 18.6604 163.089 18.4828C163.175 18.7309 163.341 18.941 163.56 19.0777C163.779 19.2143 164.038 19.269 164.292 19.2324L167.736 19.1929V19.188ZM152.757 17.753C152.276 17.753 151.973 17.6248 151.973 17.4078C151.973 17.1908 152.137 17.0232 152.512 16.8555L153.416 16.3624L153.561 17.5705C153.311 17.6957 153.036 17.7583 152.757 17.753Z" fill="white"/>
<path d="M169.926 15.1148L170.465 15.6671H170.546L171.085 15.1148L170.546 14.5625H170.465L169.926 15.1148Z" fill="white"/>
<path d="M188.224 12.8701H187.978C187.44 13.2597 187.314 13.6739 187.603 14.1029L187.714 18.1318C187.392 18.2478 187.054 18.3046 186.713 18.2995C186.532 18.322 186.348 18.28 186.193 18.1803C186.038 18.0807 185.921 17.9295 185.862 17.7521L185.698 17.3625C185.362 16.7264 185.16 16.5193 184.789 16.5193C184.251 16.5193 183.712 17.1998 183.548 18.0431C183.304 18.1692 183.037 18.2398 182.764 18.2502C182.292 18.2831 181.826 18.1296 181.461 17.8212C181.879 17.4316 182.081 17.1801 182.081 16.8891C182.081 16.396 181.706 16.1297 181.086 16.1297C180.711 16.1308 180.343 16.231 180.018 16.4207L179.782 17.259L179.864 17.471C180.026 17.4586 180.188 17.492 180.334 17.5677C180.479 17.6433 180.601 17.7583 180.686 17.9001L180.73 17.9395C180.301 18.1873 179.817 18.3196 179.325 18.3242H176.016C175.39 18.3242 175.054 18.0332 174.77 17.0519L174.149 15.2865H173.947L173.664 16.0064L174.241 17.4858C174.321 17.7051 174.418 17.9177 174.529 18.122C174.179 18.3417 173.777 18.4609 173.365 18.4672C172.625 18.4672 172.403 18.3389 172.37 17.7866V17.6535H172.124C172.041 17.8837 172 18.1279 172.004 18.3735C172.004 19.0096 172.379 19.3005 173.163 19.3005C173.627 19.3116 174.08 19.1603 174.448 18.8715C174.486 18.7088 174.529 18.5313 174.568 18.3784H174.611C174.701 18.6299 174.864 18.847 175.078 18.9997C175.293 19.1524 175.548 19.2334 175.809 19.2315H179.243C179.898 19.1421 180.508 18.8376 180.98 18.3636C181.157 18.6367 181.398 18.8595 181.681 19.0113C181.965 19.163 182.281 19.2388 182.601 19.2315C182.969 19.2363 183.326 19.099 183.601 18.8469C184.186 19.1459 184.815 19.3457 185.463 19.4386C185.55 19.2339 185.618 19.0208 185.665 18.8025C185.774 18.941 185.912 19.0519 186.07 19.1263C186.228 19.2007 186.4 19.2367 186.574 19.2315C187.074 19.2448 187.566 19.0946 187.978 18.8025C188.136 18.4193 188.21 18.0051 188.195 17.5894V14.3643L188.613 14.0191L188.195 13.526L188.224 12.8701ZM183.866 18.0924C183.892 17.9266 183.97 17.7742 184.089 17.6591C184.209 17.544 184.362 17.4727 184.525 17.4562C184.77 17.4562 184.943 17.5795 185.188 18.0085L185.39 18.3932C185.434 18.477 185.472 18.5165 185.516 18.6003C184.955 18.4699 184.404 18.3002 183.866 18.0924Z" fill="white"/>
<path d="M190.045 19.1871L190.286 18.2551V12.8701H190.045L189.627 13.7183L189.79 19.1871H190.045Z" fill="white"/>
<path d="M194.096 19.3551C194.928 19.3551 195.409 18.7387 195.409 17.787C195.409 16.9437 195.034 16.4309 193.548 15.8145L193.504 15.8539V16.7021C193.119 17.1162 192.886 17.6549 192.845 18.2259C192.83 18.5247 192.93 18.8176 193.125 19.0405C193.32 19.2633 193.593 19.3978 193.884 19.4143C193.948 19.3737 194.021 19.3531 194.096 19.3551ZM193.851 16.8895C194.76 17.3185 195.096 17.6538 195.096 17.9546C195.096 18.2555 194.716 18.4478 194.134 18.4478C193.552 18.4478 193.172 18.2407 193.172 17.8955C193.271 17.4892 193.513 17.1345 193.851 16.8993V16.8895Z" fill="white"/>
<path d="M193.638 14.2275L193.1 14.7848L193.638 15.3272H193.72L194.139 14.8637L194.596 15.3272H194.677L195.173 14.7848L194.634 14.2275H194.596L194.139 14.6911L193.677 14.2275H193.638Z" fill="white"/>
<path d="M197.487 16.002C196.866 16.002 196.246 16.8896 196.246 17.7871C196.228 18.0559 196.312 18.3213 196.481 18.528C196.649 18.7347 196.889 18.8668 197.15 18.8966H197.333C197.609 18.9071 197.884 18.8531 198.136 18.7388L198.382 18.1027C198.418 18.2408 198.432 18.384 198.425 18.5268C198.425 19.513 197.424 20.1886 195.654 20.4993V20.7114L197.222 21.2045C197.669 20.8029 198.034 20.3146 198.295 19.7679C198.557 19.2212 198.711 18.6267 198.747 18.0189C198.728 16.9438 198.189 16.002 197.487 16.002ZM197.444 17.9745C196.905 17.9745 196.583 17.8463 196.583 17.5455C196.581 17.4504 196.597 17.3558 196.632 17.2676C196.667 17.1793 196.718 17.0991 196.784 17.0319C196.85 16.9646 196.928 16.9116 197.014 16.8762C197.1 16.8407 197.192 16.8235 197.285 16.8255C197.699 16.8255 198.151 17.294 198.324 17.8463C198.05 17.9787 197.745 18.0316 197.444 17.9991V17.9745Z" fill="white"/>
<path d="M202.875 14.3108L203.361 13.8029L202.832 13.29H202.793L202.293 13.8029L202.793 14.3108H202.875Z" fill="white"/>
<path d="M203.277 14.2715L202.83 14.6906L202.373 14.2715H202.33L201.791 14.8238L202.33 15.3662H202.412L202.83 14.9076L203.277 15.3662H203.359L203.859 14.8238L203.321 14.2715H203.277Z" fill="white"/>
<path d="M204.022 19.1893C204.523 19.1996 205.014 19.0496 205.427 18.7603C205.576 18.3835 205.645 17.9782 205.629 17.5718V14.3467L206.047 14.0015L205.629 13.5084V12.8525H205.427C204.888 13.2372 204.763 13.6563 205.052 14.0854L205.172 18.1143C204.852 18.2296 204.515 18.2864 204.176 18.2819C203.556 18.2819 203.311 18.0304 203.176 17.2562L202.974 15.9445H202.772L202.647 16.2354C202.401 16.9554 202.108 17.1231 201.781 17.1231C201.593 17.0941 201.414 17.0218 201.257 16.9116C201.101 16.8014 200.971 16.6562 200.877 16.4869H200.631L200.348 17.2611C200.886 17.7543 201.132 18.1932 201.132 18.5778C201.132 19.3372 200.266 19.9783 198.727 20.3629V20.6144L200.295 21.1667C201.002 20.2905 201.411 19.2013 201.459 18.0649V17.9811C201.536 17.9811 201.617 18.0255 201.699 18.0255C202.18 18.0255 202.483 17.7296 202.661 17.0392L202.743 17.5915C202.969 18.8539 203.253 19.2287 204.037 19.1893H204.022Z" fill="white"/>
<path d="M207.752 18.2551V12.8701H207.506L207.088 13.7183L207.251 19.1871H207.506L207.752 18.2551Z" fill="white"/>
<path d="M208.289 20.4595V20.711L209.838 21.2041C210.284 20.8025 210.649 20.3142 210.911 19.7675C211.173 19.2208 211.326 18.6263 211.363 18.0185C211.363 16.8695 210.824 15.9424 210.122 15.9424C209.501 15.9424 208.881 16.83 208.881 17.7275C208.862 17.996 208.946 18.2615 209.114 18.4677C209.283 18.6739 209.524 18.8046 209.785 18.8321H209.949C210.219 18.8384 210.487 18.781 210.733 18.6645L210.978 18.0283C211.01 18.1688 211.023 18.3132 211.016 18.4574C211.06 19.4485 210.03 20.1241 208.289 20.4595ZM210.069 17.9938C209.53 17.9938 209.203 17.8656 209.203 17.5648C209.202 17.4699 209.219 17.3757 209.254 17.2877C209.289 17.1997 209.34 17.1199 209.406 17.0527C209.471 16.9856 209.549 16.9326 209.635 16.8969C209.721 16.8612 209.813 16.8435 209.905 16.8448C210.324 16.8448 210.771 17.3133 210.944 17.8656C210.67 17.9911 210.367 18.0372 210.069 17.9987V17.9938Z" fill="white"/>
<path d="M154.042 23.3504L154.282 23.3011V23.1729H153.58V23.3011L153.003 24.7114L152.339 23.1729H151.68V23.3011L151.921 23.3504V25.1257L151.637 25.2095V25.3476H152.464V25.2095L152.094 25.0862V23.4786L152.796 25.0418L152.878 25.2095H153.003L153.041 25.0418L153.705 23.4342V25.1257L153.416 25.2095V25.3476H154.326V25.2095L154.042 25.1257V23.3504Z" fill="white"/>
<path d="M155.029 23.7305L154.538 23.8538V23.982L154.702 24.0313V25.126L154.49 25.2099V25.3479H155.241V25.2099L155.029 25.126V23.7305Z" fill="white"/>
<path d="M155.066 23.1329C155.066 23.078 155.045 23.0253 155.007 22.9864C154.969 22.9476 154.918 22.9258 154.864 22.9258C154.811 22.9258 154.759 22.9476 154.721 22.9864C154.683 23.0253 154.662 23.078 154.662 23.1329C154.681 23.1826 154.714 23.2254 154.757 23.2553C154.8 23.2853 154.851 23.3011 154.903 23.3006C154.968 23.2565 155.023 23.1994 155.066 23.1329Z" fill="white"/>
<path d="M156.89 24.2828C156.89 23.8538 156.77 23.7305 156.433 23.7305C156.244 23.7632 156.072 23.8668 155.952 24.0214L155.871 23.7305L155.457 23.8981V23.982L155.659 24.0214V25.1507L155.457 25.2345V25.3627H156.179V25.2345L155.967 25.1507V24.1644C156.015 24.1126 156.074 24.0714 156.138 24.0434C156.203 24.0154 156.272 24.0012 156.342 24.0017C156.544 24.0017 156.626 24.125 156.626 24.342V25.1507L156.462 25.1951V25.3184H157.169V25.1507L156.963 25.0669L156.89 24.2828Z" fill="white"/>
<path d="M157.765 23.7305L157.27 23.8538V23.982L157.472 24.0313V25.126L157.27 25.2099V25.3479H158.01V25.2099L157.765 25.126V23.7305Z" fill="white"/>
<path d="M157.809 23.1345C157.79 23.0843 157.756 23.0415 157.712 23.0115C157.668 22.9816 157.617 22.966 157.564 22.9668C157.482 22.9668 157.444 23.0507 157.4 23.1345C157.42 23.1846 157.454 23.2275 157.498 23.2575C157.541 23.2874 157.593 23.303 157.646 23.3022C157.718 23.2578 157.809 23.1789 157.809 23.1345Z" fill="white"/>
<path d="M158.919 24.4501L158.755 24.3663C158.548 24.2824 158.51 24.1986 158.51 24.0753C158.508 24.0473 158.512 24.0192 158.521 23.9929C158.53 23.9665 158.545 23.9425 158.564 23.9224C158.583 23.9024 158.606 23.8867 158.632 23.8765C158.657 23.8663 158.685 23.8618 158.712 23.8633C158.788 23.8664 158.861 23.896 158.919 23.9471L159.039 24.2381H159.121V23.814C158.992 23.7454 158.847 23.7163 158.702 23.7301C158.635 23.7217 158.566 23.7282 158.501 23.7492C158.435 23.7702 158.375 23.8052 158.324 23.8518C158.273 23.8985 158.233 23.9558 158.205 24.0198C158.177 24.0838 158.163 24.1532 158.164 24.2233C158.164 24.4353 158.245 24.5685 158.5 24.6523L158.621 24.7361C158.823 24.8199 158.904 24.9432 158.904 25.0813C158.903 25.1468 158.878 25.2093 158.833 25.2561C158.788 25.3028 158.728 25.3303 158.664 25.3328C158.576 25.3299 158.491 25.3008 158.419 25.249L158.255 24.8643H158.135L158.173 25.3328C158.31 25.4191 158.469 25.462 158.63 25.4561C158.703 25.4658 158.776 25.4606 158.847 25.4411C158.917 25.4215 158.983 25.3878 159.041 25.3419C159.098 25.2961 159.147 25.239 159.183 25.174C159.219 25.1089 159.242 25.0372 159.251 24.963C159.294 24.7115 159.212 24.5734 158.919 24.4501Z" fill="white"/>
<path d="M160.199 25.1498C160.078 25.1498 159.996 25.1498 159.996 24.9033V24.0156H160.415V23.8381H159.996V23.4189H159.871L159.713 23.848L159.506 23.8874V24.0156H159.713V25.0808C159.713 25.2879 159.794 25.4654 160.045 25.4654C160.132 25.4715 160.219 25.4598 160.301 25.431C160.384 25.4023 160.46 25.357 160.526 25.2978L160.482 25.2139C160.398 25.1593 160.297 25.1366 160.199 25.1498Z" fill="white"/>
<path d="M161.523 23.7305C161.403 23.7305 161.321 23.8143 161.191 23.982L161.066 24.1644L161.028 23.7798L160.547 23.9474V24.0313L160.754 24.0707V25.1507L160.547 25.2345V25.3578H161.331V25.2345L161.047 25.1901V24.3025C161.099 24.221 161.173 24.1561 161.259 24.1151L161.504 24.1989C161.547 24.1742 161.581 24.1371 161.603 24.0924C161.626 24.0477 161.635 23.9973 161.629 23.9474C161.629 23.8636 161.586 23.7798 161.504 23.7798C161.567 23.7305 161.523 23.7305 161.523 23.7305Z" fill="white"/>
<path d="M162.767 23.8983L162.969 23.9821L162.551 25.0867L162.175 23.9821L162.377 23.9377V23.8145H161.637V23.9377L161.8 23.9821L162.377 25.5059L162.214 25.93C162.203 25.894 162.182 25.8625 162.152 25.8402C162.123 25.818 162.087 25.8062 162.05 25.8067C162.009 25.8102 161.97 25.8292 161.94 25.86C161.911 25.8908 161.894 25.9315 161.892 25.9744C161.89 26.0019 161.895 26.0295 161.904 26.0553C161.914 26.081 161.929 26.1044 161.948 26.124C161.967 26.1435 161.99 26.1587 162.015 26.1686C162.04 26.1785 162.067 26.1829 162.094 26.1815C162.257 26.1815 162.339 26.0582 162.469 25.7525L163.181 23.9673L163.344 23.9279V23.8145H162.796V23.8983H162.767Z" fill="white"/>
<path d="M164.793 23.7305C164.689 23.7328 164.587 23.7569 164.492 23.8011C164.398 23.8454 164.313 23.9089 164.243 23.9878C164.173 24.0667 164.12 24.1593 164.086 24.2601C164.053 24.3608 164.039 24.4675 164.047 24.5737C164.032 24.7703 164.094 24.9648 164.218 25.1153C164.342 25.2657 164.519 25.3599 164.711 25.3775H164.793C164.897 25.3759 164.999 25.3523 165.094 25.3083C165.188 25.2642 165.273 25.2007 165.342 25.1215C165.412 25.0424 165.465 24.9494 165.498 24.8483C165.531 24.7473 165.543 24.6404 165.533 24.5343C165.553 24.3438 165.498 24.1532 165.382 24.0031C165.267 23.853 165.098 23.7552 164.913 23.7305H164.793ZM164.841 25.2099C164.509 25.2099 164.384 24.8252 164.384 24.4899C164.384 24.1546 164.509 23.8981 164.764 23.8981C165.019 23.8981 165.221 24.1447 165.221 24.6181C165.211 24.9584 165.105 25.2099 164.841 25.2099Z" fill="white"/>
<path d="M166.654 22.8809C166.456 22.9087 166.274 23.0107 166.145 23.1672C166.015 23.3237 165.947 23.5238 165.952 23.729L165.75 23.8129V23.9362H165.952V25.1493L165.75 25.2331V25.3613H166.548V25.2331L166.25 25.1493V23.9362H166.664V23.7685H166.25V23.517C166.25 23.1767 166.37 23.0485 166.582 23.0485C166.605 23.0456 166.628 23.048 166.65 23.0557C166.671 23.0634 166.691 23.0761 166.707 23.0929L166.789 23.3839H166.871C166.893 23.3862 166.915 23.3834 166.936 23.3758C166.957 23.3682 166.976 23.3559 166.991 23.3399C167.007 23.3238 167.019 23.3044 167.026 23.283C167.034 23.2616 167.037 23.2388 167.034 23.2162V23.1767C167.073 23.0485 166.909 22.8809 166.654 22.8809Z" fill="white"/>
<path d="M168.15 23.3504L168.395 23.3011V23.1729H167.529V23.3011L167.818 23.3504V25.1257L167.529 25.2095V25.3476H168.438V25.2095L168.15 25.1257V23.3504Z" fill="white"/>
<path d="M170.097 24.2828C170.097 23.8538 169.972 23.7305 169.616 23.7305C169.425 23.7609 169.253 23.865 169.135 24.0214L169.053 23.7305L168.635 23.8981V23.982L168.837 24.0214V25.1507L168.635 25.2345V25.3627H169.337V25.2345L169.14 25.1507V24.1644C169.188 24.1126 169.247 24.0714 169.311 24.0434C169.376 24.0154 169.445 24.0012 169.515 24.0017C169.717 24.0017 169.799 24.125 169.799 24.342V25.1507L169.64 25.1951V25.3184H170.342V25.1507L170.135 25.0669L170.097 24.2828Z" fill="white"/>
<path d="M171.868 22.9258L171.247 23.0096V23.1329L171.531 23.1773V23.8134C171.454 23.7768 171.37 23.7615 171.286 23.769C171.177 23.7721 171.069 23.7978 170.97 23.8445C170.871 23.8913 170.782 23.9581 170.709 24.0411C170.635 24.124 170.579 24.2214 170.544 24.3272C170.508 24.433 170.494 24.5451 170.502 24.6567C170.49 24.7437 170.497 24.8323 170.52 24.9167C170.544 25.0012 170.584 25.0797 170.639 25.1473C170.694 25.215 170.761 25.2703 170.838 25.3097C170.914 25.3492 170.998 25.372 171.084 25.3766H171.127C171.299 25.3678 171.462 25.294 171.584 25.1695L171.666 25.3766L172.147 25.2928V25.1498L171.901 25.066L171.868 22.9258ZM171.541 25.0857C171.467 25.1303 171.385 25.1589 171.3 25.1695C170.92 25.1695 170.819 24.8243 170.819 24.489C170.819 24.1537 171.021 23.9367 171.238 23.9367C171.305 23.9434 171.369 23.9655 171.427 24.0014C171.484 24.0372 171.533 24.0859 171.569 24.1438V25.0857H171.541Z" fill="white"/>
<path d="M173.73 23.7697L173.153 23.8141V23.9373L173.398 23.9817V25.0025C173.305 25.0864 173.185 25.1306 173.061 25.1258C172.854 25.1258 172.725 25.0025 172.725 24.7411V23.7549L172.205 23.7993V23.9225L172.407 23.9669V24.7658C172.407 25.1554 172.571 25.323 172.826 25.323C173.029 25.3088 173.22 25.2195 173.364 25.0715L173.446 25.323L173.927 25.2787V25.1504H173.701L173.73 23.7697Z" fill="white"/>
<path d="M174.894 24.4498L174.769 24.366C174.567 24.2821 174.528 24.1983 174.528 24.075C174.526 24.047 174.53 24.0189 174.539 23.9926C174.549 23.9662 174.563 23.9422 174.582 23.9221C174.601 23.902 174.625 23.8864 174.65 23.8762C174.676 23.866 174.703 23.8615 174.73 23.863C174.805 23.8652 174.877 23.8949 174.932 23.9468L175.057 24.2377H175.139V23.8136C175.01 23.7453 174.865 23.7162 174.721 23.7298C174.58 23.7199 174.442 23.7656 174.334 23.8573C174.225 23.9491 174.155 24.08 174.139 24.2229C174.139 24.435 174.22 24.5681 174.475 24.652L174.596 24.7358C174.802 24.8196 174.884 24.9429 174.884 25.081C174.882 25.1469 174.855 25.2095 174.81 25.2561C174.764 25.3028 174.703 25.33 174.639 25.3325H174.596C174.509 25.3298 174.425 25.3006 174.355 25.2487L174.191 24.864H174.066L174.11 25.3325C174.254 25.4236 174.422 25.4667 174.591 25.4558C174.663 25.4654 174.737 25.4603 174.807 25.4407C174.877 25.4212 174.943 25.3875 175.001 25.3416C175.059 25.2958 175.107 25.2387 175.143 25.1737C175.179 25.1086 175.202 25.0369 175.211 24.9626C175.269 24.7111 175.149 24.5731 174.894 24.4498Z" fill="white"/>
<path d="M176.136 25.1498C176.016 25.1498 175.934 25.1498 175.934 24.9033V24.0156H176.348V23.8381H175.934V23.4189H175.809L175.645 23.8036L175.443 23.8874V24.0156H175.645V25.0808C175.645 25.2879 175.727 25.4654 175.982 25.4654C176.069 25.4715 176.156 25.4598 176.239 25.431C176.322 25.4023 176.398 25.357 176.463 25.2978V25.1498C176.355 25.1299 176.244 25.1299 176.136 25.1498Z" fill="white"/>
<path d="M177.458 23.7305C177.338 23.7305 177.256 23.8143 177.121 23.982L177.001 24.1447L176.958 23.7601L176.477 23.9277V24.0116L176.683 24.051V25.1507L176.477 25.2345V25.3578H177.261V25.2345L176.977 25.1901V24.3025C177.022 24.2141 177.093 24.1419 177.179 24.0954L177.424 24.1792C177.466 24.1542 177.5 24.117 177.522 24.0722C177.543 24.0274 177.551 23.9771 177.544 23.9277C177.544 23.8439 177.506 23.7601 177.424 23.7601C177.501 23.7305 177.458 23.7305 177.458 23.7305Z" fill="white"/>
<path d="M178.698 23.8983L178.905 23.9821L178.487 25.0867L178.092 23.9821L178.333 23.9377V23.8145H177.611V23.9377L177.732 23.9821L178.314 25.5059L178.15 25.93C178.14 25.894 178.118 25.8625 178.088 25.8402C178.059 25.818 178.023 25.8062 177.987 25.8067C177.944 25.8101 177.905 25.8288 177.875 25.8596C177.845 25.8903 177.826 25.931 177.823 25.9744C177.822 26.0024 177.826 26.0304 177.836 26.0565C177.846 26.0827 177.861 26.1063 177.881 26.1259C177.9 26.1455 177.924 26.1606 177.949 26.1702C177.975 26.1798 178.003 26.1836 178.03 26.1815C178.193 26.1815 178.275 26.0582 178.405 25.7525L179.107 23.9673L179.232 23.9279V23.844H178.689L178.698 23.8983Z" fill="white"/>
<path d="M181.187 25.0864V24.2382C181.187 23.898 181.067 23.7451 180.706 23.7451C180.345 23.7451 180.086 23.9966 180.086 24.1692C180.086 24.253 180.129 24.2974 180.249 24.2974H180.369V23.9522C180.418 23.9212 180.476 23.9074 180.533 23.9128C180.697 23.9128 180.822 24.0361 180.822 24.2974V24.4651L180.485 24.5489C180.148 24.6328 180.004 24.756 180.004 25.0421C180.004 25.1441 180.043 25.2419 180.114 25.314C180.184 25.3862 180.28 25.4267 180.379 25.4267C180.586 25.4267 180.668 25.3429 180.86 25.1752C180.858 25.2084 180.863 25.2416 180.874 25.2727C180.885 25.3039 180.903 25.3322 180.926 25.3559C180.948 25.3796 180.976 25.3982 181.006 25.4104C181.036 25.4226 181.068 25.4281 181.101 25.4267C181.217 25.4199 181.331 25.3915 181.437 25.3429V25.259H181.274C181.187 25.1505 181.187 25.1505 181.187 25.0864ZM180.85 25.0026C180.812 25.0864 180.687 25.1259 180.605 25.1703C180.545 25.1744 180.486 25.1546 180.441 25.1151C180.395 25.0755 180.366 25.0193 180.36 24.9582V24.9188C180.36 24.7971 180.442 24.7133 180.605 24.6673L180.894 24.5834V25.0125H180.85V25.0026Z" fill="white"/>
<path d="M183.047 24.2828C183.047 23.8538 182.927 23.7305 182.566 23.7305C182.376 23.7632 182.205 23.8668 182.085 24.0214L182.004 23.7305L181.59 23.8981V23.982L181.792 24.0214V25.1507L181.59 25.2345V25.3627H182.249V25.2345L182.052 25.1507V24.1644C182.1 24.1126 182.158 24.0714 182.223 24.0434C182.287 24.0154 182.357 24.0012 182.427 24.0017C182.634 24.0017 182.711 24.125 182.711 24.342V25.1507L182.552 25.1951V25.3184H183.254V25.1507L183.047 25.0669V24.2828Z" fill="white"/>
<path d="M184.826 22.9258L184.206 23.0096V23.1329L184.49 23.1773V23.8134C184.413 23.7768 184.329 23.7615 184.244 23.769C184.136 23.7727 184.029 23.7989 183.93 23.8459C183.832 23.893 183.743 23.9599 183.671 24.0428C183.598 24.1257 183.542 24.2228 183.507 24.3283C183.472 24.4338 183.457 24.5455 183.465 24.6567C183.453 24.7439 183.459 24.8327 183.482 24.9174C183.505 25.0022 183.546 25.081 183.601 25.1488C183.655 25.2167 183.723 25.272 183.8 25.3112C183.877 25.3504 183.961 25.3727 184.047 25.3766H184.086C184.175 25.3764 184.264 25.3579 184.346 25.3224C184.429 25.2869 184.504 25.2349 184.567 25.1695L184.648 25.3766L185.129 25.2928V25.1498L184.826 25.0857V22.9258ZM184.49 25.0857C184.415 25.1311 184.331 25.1597 184.244 25.1695C183.869 25.1695 183.763 24.8243 183.763 24.489C183.755 24.4245 183.76 24.3591 183.776 24.2964C183.793 24.2337 183.822 24.175 183.861 24.1236C183.9 24.0723 183.948 24.0294 184.003 23.9973C184.058 23.9652 184.119 23.9446 184.182 23.9367C184.25 23.9427 184.315 23.9645 184.374 24.0004C184.432 24.0362 184.482 24.0853 184.519 24.1438L184.49 25.0857Z" fill="white"/>
<path d="M188.303 23.3504L188.544 23.3011V23.1729H187.842V23.3011L187.264 24.7114L186.601 23.1729H185.898V23.3011L186.192 23.3504V25.1257L185.898 25.2095V25.3476H186.735V25.2095L186.355 25.0862V23.4786L187.058 25.0418L187.101 25.2095H187.221L187.303 25.0418L187.976 23.4342V25.1257L187.683 25.2095V25.3476H188.544V25.2095L188.303 25.1257V23.3504Z" fill="white"/>
<path d="M188.881 23.1341C188.88 23.1621 188.884 23.1901 188.894 23.2162C188.904 23.2424 188.919 23.266 188.939 23.2856C188.958 23.3052 188.982 23.3203 189.008 23.3299C189.033 23.3395 189.061 23.3433 189.088 23.3412C189.142 23.3412 189.193 23.3194 189.231 23.2805C189.269 23.2417 189.29 23.189 189.29 23.1341C189.29 23.0791 189.269 23.0265 189.231 22.9876C189.193 22.9488 189.142 22.9269 189.088 22.9269C188.963 22.8826 188.881 23.0108 188.881 23.1341Z" fill="white"/>
<path d="M189.262 23.7305L188.8 23.8538V23.982L188.964 24.0313V25.126L188.762 25.2099V25.3479H189.502V25.2099L189.262 25.126V23.7305Z" fill="white"/>
<path d="M191.112 24.2828C191.112 23.8538 190.987 23.7305 190.656 23.7305C190.465 23.7609 190.293 23.865 190.175 24.0214L190.117 23.7305L189.703 23.8981V23.982L189.905 24.0214V25.1507L189.703 25.2345V25.3627H190.405V25.2345L190.194 25.1507V24.1644C190.243 24.1126 190.302 24.0716 190.368 24.0436C190.433 24.0156 190.503 24.0014 190.574 24.0017C190.776 24.0017 190.858 24.125 190.858 24.342V25.1507H190.694V25.274H191.358V25.1507L191.151 25.0669L191.112 24.2828Z" fill="white"/>
<path d="M192.353 25.1491C192.017 25.1491 191.815 24.9025 191.815 24.5129H192.854C192.854 24.0839 192.647 23.793 192.272 23.793C192.167 23.7945 192.064 23.8182 191.969 23.8626C191.874 23.9069 191.789 23.971 191.72 24.0507C191.65 24.1304 191.598 24.224 191.565 24.3256C191.532 24.4272 191.521 24.5347 191.531 24.6412V24.6559C191.522 24.748 191.531 24.8408 191.558 24.9292C191.585 25.0175 191.628 25.0996 191.686 25.1707C191.743 25.2417 191.814 25.3004 191.894 25.3432C191.974 25.3861 192.061 25.4123 192.151 25.4203C192.305 25.4274 192.456 25.3832 192.583 25.2942C192.71 25.2052 192.805 25.0764 192.854 24.9272L192.772 24.8877C192.669 25.0249 192.52 25.118 192.353 25.1491ZM192.233 23.9212C192.435 23.9212 192.517 24.1283 192.517 24.3453H191.815C191.813 24.2875 191.822 24.2298 191.842 24.1758C191.862 24.1218 191.893 24.0724 191.932 24.0306C191.971 23.9888 192.017 23.9554 192.069 23.9324C192.121 23.9093 192.177 23.8971 192.233 23.8965V23.9212Z" fill="white"/>
<path d="M194.055 23.7305C193.93 23.7305 193.849 23.8143 193.719 23.982L193.594 24.1447L193.555 23.7601L193.074 23.9277V24.0116L193.276 24.051V25.1507L193.074 25.2345V25.3578H193.858V25.2345L193.57 25.1901V24.3025L193.776 24.0954L194.017 24.1792C194.06 24.1544 194.094 24.1174 194.116 24.0727C194.139 24.028 194.147 23.9776 194.142 23.9277C194.142 23.8439 194.099 23.7601 194.017 23.7601C194.094 23.7305 194.055 23.7305 194.055 23.7305Z" fill="white"/>
<path d="M195.5 25.0864V24.2382C195.5 23.898 195.379 23.7451 195.019 23.7451C194.658 23.7451 194.398 23.9966 194.398 24.1692C194.398 24.253 194.441 24.2974 194.562 24.2974H194.687V23.9522C194.734 23.9209 194.79 23.907 194.846 23.9128C195.009 23.9128 195.134 24.0361 195.134 24.2974V24.4651L194.797 24.5489C194.461 24.6328 194.316 24.756 194.316 25.0421C194.316 25.1441 194.356 25.2419 194.426 25.314C194.497 25.3862 194.592 25.4267 194.692 25.4267C194.898 25.4267 194.98 25.3429 195.173 25.1752C195.171 25.2086 195.177 25.2419 195.188 25.2731C195.2 25.3042 195.218 25.3325 195.241 25.3561C195.264 25.3798 195.292 25.3982 195.322 25.4104C195.353 25.4225 195.385 25.4281 195.418 25.4267C195.533 25.4193 195.645 25.3909 195.75 25.3429V25.259H195.591C195.543 25.1505 195.5 25.1505 195.5 25.0864ZM195.173 25.0026C195.134 25.0864 195.014 25.1259 194.932 25.1703C194.902 25.173 194.872 25.1696 194.844 25.1604C194.816 25.1512 194.789 25.1363 194.766 25.1166C194.744 25.0969 194.725 25.0727 194.711 25.0456C194.697 25.0184 194.689 24.9887 194.687 24.9582V24.9188C194.687 24.7971 194.769 24.7133 194.932 24.6673L195.216 24.5834V25.0125H195.173V25.0026Z" fill="white"/>
<path d="M196.418 22.9258L195.918 23.0096V23.1329L196.12 23.1723V25.1251L195.918 25.209V25.3471H196.62V25.209L196.418 25.1251V22.9258Z" fill="white"/>
<path d="M198.689 24.2833C198.819 24.2619 198.938 24.1954 199.025 24.0948C199.113 23.9942 199.164 23.8657 199.17 23.731C199.17 23.3858 198.833 23.1787 198.266 23.1787H197.496V23.302L197.78 23.3858V25.1512L197.496 25.2351V25.3584H198.362V25.2351L198.117 25.1512V24.4066H198.362L198.482 24.6187L199.026 25.3781H199.564V25.2548L199.281 25.1512L198.689 24.2833ZM198.362 24.2389H198.117V23.3119C198.598 23.3119 198.819 23.4795 198.819 23.805C198.784 23.9131 198.721 24.0091 198.636 24.0823C198.551 24.1555 198.448 24.2029 198.338 24.2192L198.362 24.2389Z" fill="white"/>
<path d="M200.43 25.1491C200.093 25.1491 199.891 24.9026 199.891 24.513H200.925C200.925 24.084 200.723 23.793 200.348 23.793C200.243 23.7916 200.138 23.8132 200.042 23.8565C199.945 23.8998 199.859 23.9637 199.788 24.044C199.718 24.1243 199.665 24.2191 199.633 24.3221C199.601 24.4251 199.59 24.5339 199.603 24.6412V24.656C199.597 24.8463 199.663 25.0315 199.786 25.1736C199.91 25.3158 200.082 25.4041 200.267 25.4204C200.41 25.4204 200.552 25.3805 200.675 25.305C200.799 25.2295 200.9 25.1211 200.969 24.9913L200.887 24.947C200.74 25.0258 200.587 25.0934 200.43 25.1491ZM200.267 23.9212C200.469 23.9212 200.55 24.1284 200.55 24.3453H199.848C199.857 24.2327 199.904 24.1267 199.98 24.045C200.056 23.9633 200.157 23.9109 200.267 23.8966V23.9212Z" fill="white"/>
<path d="M201.917 24.4506L201.791 24.3667C201.589 24.2829 201.551 24.1991 201.551 24.0758C201.549 24.0478 201.553 24.0197 201.562 23.9933C201.571 23.967 201.586 23.9429 201.605 23.9229C201.624 23.9028 201.647 23.8871 201.673 23.8769C201.698 23.8667 201.726 23.8622 201.753 23.8637C201.828 23.8659 201.9 23.8957 201.955 23.9476L202.08 24.2385H202.143V23.8144C202.014 23.7461 201.869 23.717 201.724 23.7306C201.654 23.7217 201.583 23.7276 201.515 23.7479C201.447 23.7682 201.384 23.8025 201.33 23.8486C201.275 23.8948 201.23 23.9519 201.198 24.0164C201.166 24.0808 201.147 24.1514 201.142 24.2237C201.136 24.3253 201.167 24.4256 201.23 24.505C201.292 24.5843 201.381 24.637 201.479 24.6527L201.599 24.7366C201.844 24.8204 201.888 24.9437 201.888 25.0818C201.884 25.1468 201.857 25.2082 201.812 25.2538C201.766 25.2994 201.706 25.326 201.642 25.3283C201.554 25.327 201.468 25.2977 201.397 25.2445L201.234 24.8599H201.113L201.152 25.353C201.296 25.4441 201.464 25.4888 201.633 25.4812C201.779 25.4995 201.927 25.458 202.044 25.3658C202.161 25.2735 202.238 25.1379 202.258 24.9881C202.292 24.7119 202.21 24.5738 201.917 24.4506Z" fill="white"/>
<path d="M203.32 23.7305C203.216 23.7328 203.114 23.7569 203.019 23.8011C202.925 23.8454 202.84 23.9089 202.77 23.9878C202.701 24.0667 202.647 24.1593 202.614 24.2601C202.58 24.3608 202.567 24.4675 202.574 24.5737C202.56 24.7703 202.621 24.9648 202.745 25.1153C202.87 25.2657 203.047 25.3599 203.238 25.3775H203.32C203.424 25.3766 203.527 25.3535 203.622 25.3098C203.718 25.266 203.803 25.2025 203.873 25.1233C203.943 25.0441 203.996 24.9508 204.029 24.8495C204.063 24.7481 204.075 24.6408 204.066 24.5343C204.085 24.3438 204.031 24.1532 203.915 24.0031C203.799 23.853 203.63 23.7552 203.445 23.7305H203.32ZM203.358 25.2099C203.022 25.2099 202.877 24.8252 202.877 24.4899C202.877 24.1546 202.998 23.8981 203.253 23.8981C203.508 23.8981 203.734 24.1447 203.734 24.6181C203.734 24.9584 203.57 25.2099 203.354 25.2099H203.358Z" fill="white"/>
<path d="M205.682 23.7697L205.1 23.8141V23.9373L205.345 23.9817V25.0025C205.252 25.0864 205.132 25.1306 205.008 25.1258C204.806 25.1258 204.672 25.0025 204.672 24.7411V23.7549L204.133 23.7993V23.9225L204.34 23.9669V24.7658C204.34 25.1554 204.498 25.323 204.821 25.323C205.024 25.3088 205.215 25.2195 205.359 25.0715L205.441 25.323L205.922 25.2392V25.1504L205.677 25.111L205.682 23.7697Z" fill="white"/>
<path d="M207.006 23.7305C206.886 23.7305 206.804 23.8143 206.669 23.982L206.549 24.1447L206.506 23.7601L206.049 23.9277V24.0116L206.256 24.051V25.1507L206.049 25.2345V25.3578H206.833V25.2345L206.549 25.1901V24.3025C206.594 24.2141 206.665 24.1419 206.751 24.0954L206.996 24.1792C207.039 24.1542 207.072 24.117 207.094 24.0722C207.115 24.0274 207.123 23.9771 207.117 23.9277C207.117 23.8439 207.078 23.7601 206.996 23.7601L207.006 23.7305Z" fill="white"/>
<path d="M208.126 25.1491C208.049 25.1469 207.973 25.1282 207.903 25.0943C207.834 25.0605 207.771 25.0121 207.721 24.9523C207.67 24.8925 207.632 24.8226 207.609 24.7469C207.586 24.6713 207.579 24.5916 207.588 24.5129C207.588 24.1677 207.751 23.9212 208.069 23.9212C208.15 23.9212 208.189 23.9212 208.232 23.9606L208.271 24.3058H208.396C208.438 24.3024 208.478 24.2837 208.508 24.2529C208.538 24.2222 208.556 24.1815 208.559 24.1382C208.559 23.9705 208.352 23.793 208.078 23.793C207.971 23.7955 207.865 23.8199 207.767 23.8649C207.669 23.9098 207.581 23.9744 207.507 24.0547C207.434 24.1351 207.377 24.2296 207.339 24.3329C207.302 24.4361 207.285 24.5459 207.289 24.6559C207.275 24.842 207.332 25.0266 207.449 25.1697C207.566 25.3127 207.733 25.4028 207.915 25.4203H207.992C208.115 25.4192 208.235 25.3819 208.338 25.3128C208.441 25.2438 208.523 25.1459 208.574 25.0307L208.492 24.9913C208.383 25.072 208.258 25.126 208.126 25.1491Z" fill="white"/>
<path d="M209.613 25.1491C209.276 25.1491 209.074 24.9025 209.074 24.5129H210.113C210.113 24.0839 209.906 23.793 209.531 23.793C209.425 23.7942 209.32 23.8173 209.222 23.8609C209.125 23.9045 209.037 23.9678 208.964 24.0469C208.891 24.126 208.834 24.2194 208.796 24.3215C208.759 24.4235 208.742 24.5323 208.747 24.6412V24.6559C208.74 24.8465 208.805 25.0324 208.929 25.1748C209.053 25.3172 209.225 25.4052 209.411 25.4203H209.449C209.596 25.4183 209.738 25.3698 209.857 25.2815C209.976 25.1932 210.065 25.0695 210.113 24.9272L210.031 24.8877C209.912 25.0048 209.769 25.0939 209.613 25.1491ZM209.449 23.9212C209.656 23.9212 209.733 24.1283 209.733 24.3453H209.074C209.062 24.2893 209.063 24.2312 209.076 24.1756C209.09 24.12 209.116 24.0685 209.152 24.0249C209.189 23.9814 209.234 23.9472 209.286 23.9249C209.337 23.9026 209.393 23.8929 209.449 23.8965V23.9212Z" fill="white"/>
<path d="M211.1 24.4492L210.936 24.3654C210.734 24.2816 210.691 24.1977 210.691 24.0744C210.689 24.046 210.693 24.0175 210.702 23.9907C210.712 23.964 210.727 23.9397 210.747 23.9196C210.766 23.8994 210.79 23.8839 210.816 23.874C210.842 23.8641 210.87 23.8602 210.898 23.8624C210.973 23.8646 211.045 23.8944 211.1 23.9462L211.225 24.2372H211.283V23.8131C211.156 23.7444 211.012 23.7152 210.869 23.7293C210.799 23.7196 210.727 23.725 210.659 23.745C210.591 23.765 210.528 23.7992 210.473 23.8455C210.418 23.8918 210.374 23.9492 210.342 24.0141C210.31 24.0789 210.291 24.1498 210.287 24.2224C210.281 24.324 210.312 24.4243 210.374 24.5036C210.437 24.583 210.526 24.6357 210.624 24.6514L210.744 24.7352C210.951 24.8191 211.033 24.9424 211.033 25.0804C211.029 25.1455 211.002 25.2068 210.956 25.2524C210.911 25.2981 210.851 25.3246 210.787 25.327H210.744C210.656 25.3257 210.57 25.2964 210.499 25.2432L210.34 24.8585H210.215L210.258 25.3517C210.402 25.4442 210.57 25.489 210.739 25.4799C210.885 25.4981 211.032 25.4565 211.148 25.3641C211.264 25.2718 211.34 25.1362 211.36 24.9867C211.475 24.7106 211.393 24.5725 211.1 24.4492Z" fill="white"/>
<path d="M238.338 27.7586C238.415 27.7143 238.54 27.7143 238.622 27.6748L238.338 27.7586Z" fill="#9E9B9C"/>
<path d="M247.275 15.3281C247.155 17.3007 246.371 20.797 245.351 22.4539C244.486 23.8987 241.542 26.4877 239.06 27.5085H238.978C237.732 28.0016 236.246 27.3014 235.371 26.7441H235.332C235.196 26.6811 235.07 26.598 234.957 26.4976C234.793 26.3693 234.668 26.2855 234.668 26.2855C234.423 26.1178 234.187 25.9009 233.966 25.7332L233.803 25.5655C233.716 25.5191 233.646 25.4468 233.6 25.3584L233.264 25.0675L232.927 24.7716L232.59 24.4313L232.109 23.9382C235.813 23.0703 241.633 20.7131 244.904 18.3214C246.27 17.3007 247.184 16.2848 247.309 15.3972C247.29 15.3792 247.278 15.3546 247.275 15.3281Z" fill="url(#paint0_linear_144_2855)"/>
<path d="M238.915 27.6159C238.828 27.667 238.731 27.6958 238.631 27.6997L238.347 27.7835C238.265 27.823 238.184 27.823 238.14 27.8674L238.059 27.9068L237.938 27.9512H237.818C237.761 27.9446 237.703 27.9586 237.654 27.9906C235.73 28.1978 230.439 27.394 227.145 25.8307L227.024 25.7469L226.861 25.6631C225.987 25.2014 225.2 24.5835 224.538 23.8385C222.258 20.9537 219.53 13.9759 219.569 9.92232C219.608 9.25945 219.808 8.61713 220.151 8.05335L220.189 8.0139C220.233 7.96951 220.233 7.93006 220.271 7.88568C220.897 6.9408 221.7 6.13285 222.633 5.50879C223.715 10.8938 227.188 18.9515 231.993 23.9618L232.474 24.4549C232.633 24.6226 232.955 24.8839 233.133 25.091L233.47 25.382C233.552 25.4658 233.633 25.5102 233.672 25.5891L233.835 25.7568C234.059 25.9562 234.293 26.1423 234.538 26.314C234.626 26.3915 234.721 26.4608 234.821 26.5211C234.954 26.6156 235.094 26.6997 235.24 26.7726H235.283C236.226 27.3397 237.736 28.0597 238.915 27.6159Z" fill="url(#paint1_linear_144_2855)"/>
<path d="M247.275 15.3266V15.3661C247.155 16.2981 246.236 17.2794 244.87 18.2903C242.671 17.4562 240.594 16.3145 238.699 14.8976C233.567 11.1202 230.296 4.80319 225.991 4.50238C224.801 4.43337 223.62 4.75838 222.624 5.42946C221.689 6.05518 220.885 6.86474 220.258 7.81129C220.219 7.85074 220.219 7.89512 220.181 7.93457L220.137 7.97402C219.802 8.5466 219.61 9.19554 219.579 9.86272V9.73943C219.574 9.53954 219.588 9.33959 219.623 9.14274V9.05891C220.243 4.80319 224.548 -0.0837451 228.064 8.72e-05C232.331 0.128301 235.962 5.30618 239.272 8.44743C242.124 11.1202 244.404 12.2643 245.852 13.2357C246.775 13.9261 247.295 14.4784 247.295 15.3266H247.275Z" fill="url(#paint2_linear_144_2855)"/>
</g>
<line x1="133.204" y1="2.33301" x2="133.204" y2="26.4441" stroke="white" stroke-width="0.466667"/>
<defs>
<linearGradient id="paint0_linear_144_2855" x1="257.614" y1="21.1347" x2="220.102" y2="20.5987" gradientUnits="userSpaceOnUse">
<stop offset="0.13" stop-color="#DDD9D7"/>
<stop offset="0.16" stop-color="#CECBC9"/>
<stop offset="0.24" stop-color="#A7A7A6"/>
<stop offset="0.25" stop-color="#A2A2A1"/>
<stop offset="0.28" stop-color="#A9A9A9"/>
<stop offset="0.32" stop-color="#BBBBBB"/>
<stop offset="0.35" stop-color="#ACACAC"/>
<stop offset="0.42" stop-color="#808181"/>
<stop offset="0.48" stop-color="#8D8E8E"/>
<stop offset="0.6" stop-color="#B1B1B1"/>
<stop offset="0.7" stop-color="#D6D6D6"/>
<stop offset="0.72" stop-color="#CCCDCD"/>
<stop offset="0.77" stop-color="#B2B4B4"/>
<stop offset="0.83" stop-color="#878B8C"/>
<stop offset="0.9" stop-color="#4D5455"/>
<stop offset="0.92" stop-color="#707475"/>
<stop offset="0.96" stop-color="#9FA1A1"/>
<stop offset="0.98" stop-color="#BDBDBD"/>
<stop offset="1" stop-color="#C8C7C7"/>
</linearGradient>
<linearGradient id="paint1_linear_144_2855" x1="221.114" y1="3.56659" x2="255.172" y2="77.1885" gradientUnits="userSpaceOnUse">
<stop offset="0.03" stop-color="#4E4D4D"/>
<stop offset="0.04" stop-color="#636363"/>
<stop offset="0.06" stop-color="#737474"/>
<stop offset="0.08" stop-color="#7F7F80"/>
<stop offset="0.11" stop-color="#858687"/>
<stop offset="0.18" stop-color="#878889"/>
<stop offset="0.35" stop-color="#4E4D4D"/>
<stop offset="0.39" stop-color="#6B6A6A"/>
<stop offset="0.45" stop-color="#888787"/>
<stop offset="0.51" stop-color="#9F9E9E"/>
<stop offset="0.58" stop-color="#B2B1B1"/>
<stop offset="0.66" stop-color="#BEBDBD"/>
<stop offset="0.77" stop-color="#C6C5C5"/>
<stop offset="1" stop-color="#C8C7C7"/>
</linearGradient>
<linearGradient id="paint2_linear_144_2855" x1="244.887" y1="18.5973" x2="210.154" y2="-3.77228" gradientUnits="userSpaceOnUse">
<stop offset="0.03" stop-color="#676767"/>
<stop offset="0.09" stop-color="#7E7E7D"/>
<stop offset="0.16" stop-color="#929291"/>
<stop offset="0.23" stop-color="#9E9E9D"/>
<stop offset="0.29" stop-color="#A2A2A1"/>
<stop offset="0.35" stop-color="#9A9A99"/>
<stop offset="0.44" stop-color="#838383"/>
<stop offset="0.52" stop-color="#676767"/>
<stop offset="0.53" stop-color="#6D6D6D"/>
<stop offset="0.59" stop-color="#979797"/>
<stop offset="0.64" stop-color="#B1B1B1"/>
<stop offset="0.67" stop-color="#BBBBBB"/>
<stop offset="0.71" stop-color="#B9B9B9"/>
<stop offset="0.73" stop-color="#B2B3B4"/>
<stop offset="0.74" stop-color="#A6A8AA"/>
<stop offset="0.75" stop-color="#95999C"/>
<stop offset="0.76" stop-color="#868B8F"/>
<stop offset="0.79" stop-color="#8B9093"/>
<stop offset="0.83" stop-color="#9A9DA0"/>
<stop offset="0.87" stop-color="#B3B4B5"/>
<stop offset="0.9" stop-color="#C8C7C7"/>
<stop offset="0.92" stop-color="#C3C2C3"/>
<stop offset="0.95" stop-color="#B4B4B6"/>
<stop offset="0.98" stop-color="#9B9EA0"/>
<stop offset="1" stop-color="#868B8F"/>
</linearGradient>
<clipPath id="clip0_144_2855">
<rect width="95.6667" height="28" fill="white" transform="translate(151.637)"/>
</clipPath>
</defs>
</svg>
